<?xml version="1.0" standalone="no"?>
<!-- Generator: Adobe Fireworks 10, Export SVG Extension by Aaron Beall (http://fireworks.abeall.com) . Version: 0.6.1  -->
<!DOCTYPE svg PUBLIC "-//W3C//DTD SVG 1.1//EN" "http://www.w3.org/Graphics/SVG/1.1/DTD/svg11.dtd">
<svg id="Untitled-Page%201" viewBox="0 0 571 372" style="background-color:#ffffff00" version="1.1"
	xmlns="http://www.w3.org/2000/svg" xmlns:xlink="http://www.w3.org/1999/xlink" xml:space="preserve"
	x="0px" y="0px" width="571px" height="372px"
>
	<defs>
		<linearGradient id="gradient1" x1="3.0928%" y1="2.6315%" x2="98.9691%" y2="96.0527%">
			<stop stop-color="#e62c75" stop-opacity="1" offset="0%"/>
			<stop stop-color="#f58ab6" stop-opacity="1" offset="100%"/>
		</linearGradient>
		<linearGradient id="gradient2" x1="22.4852%" y1="-16.6667%" x2="86.6864%" y2="93.3335%">
			<stop stop-color="#38bfdd" stop-opacity="1" offset="0%"/>
			<stop stop-color="#0092b7" stop-opacity="1" offset="100%"/>
		</linearGradient>
		<linearGradient id="gradient3" x1="6.8376%" y1="-6.7994%" x2="105.1282%" y2="112.6221%">
			<stop stop-color="#7f2d81" stop-opacity="1" offset="0%"/>
			<stop stop-color="#3e3270" stop-opacity="1" offset="100%"/>
		</linearGradient>
		<linearGradient id="gradient4" x1="3.0928%" y1="2.6319%" x2="98.969%" y2="96.0528%">
			<stop stop-color="#e62c75" stop-opacity="1" offset="0%"/>
			<stop stop-color="#f58ab6" stop-opacity="1" offset="100%"/>
		</linearGradient>
		<linearGradient id="gradient5" x1="25.9259%" y1="-31.8179%" x2="125.892%" y2="109.2118%">
			<stop stop-color="#4bcded" stop-opacity="1" offset="0%"/>
			<stop stop-color="#255dc1" stop-opacity="1" offset="100%"/>
		</linearGradient>
		<linearGradient id="gradient6" x1="3.0928%" y1="2.6313%" x2="98.969%" y2="96.0528%">
			<stop stop-color="#6c53e2" stop-opacity="1" offset="0%"/>
			<stop stop-color="#a492fe" stop-opacity="1" offset="100%"/>
		</linearGradient>
		<linearGradient id="gradient7" x1="20.1183%" y1="-58.3337%" x2="44.3787%" y2="71.6665%">
			<stop stop-color="#00ffff" stop-opacity="1" offset="0%"/>
			<stop stop-color="#009eb7" stop-opacity="1" offset="100%"/>
		</linearGradient>
		<linearGradient id="gradient8" x1="25.926%" y1="-31.818%" x2="125.892%" y2="109.2117%">
			<stop stop-color="#4bcded" stop-opacity="1" offset="0%"/>
			<stop stop-color="#255dc1" stop-opacity="1" offset="100%"/>
		</linearGradient>
		<linearGradient id="gradient9" x1="3.0928%" y1="2.6315%" x2="98.969%" y2="96.0523%">
			<stop stop-color="#6c53e2" stop-opacity="1" offset="0%"/>
			<stop stop-color="#a492fe" stop-opacity="1" offset="100%"/>
		</linearGradient>
		<linearGradient id="gradient10" x1="20.1183%" y1="-58.3345%" x2="44.3784%" y2="71.6669%">
			<stop stop-color="#00ffff" stop-opacity="1" offset="0%"/>
			<stop stop-color="#009eb7" stop-opacity="1" offset="100%"/>
		</linearGradient>
		<linearGradient id="gradient11" x1="25.926%" y1="-31.8165%" x2="125.8921%" y2="109.2122%">
			<stop stop-color="#4bcded" stop-opacity="1" offset="0%"/>
			<stop stop-color="#255dc1" stop-opacity="1" offset="100%"/>
		</linearGradient>
		<linearGradient id="gradient12" x1="25.9259%" y1="-31.8165%" x2="125.892%" y2="109.2122%">
			<stop stop-color="#4bcded" stop-opacity="1" offset="0%"/>
			<stop stop-color="#255dc1" stop-opacity="1" offset="100%"/>
		</linearGradient>
		<linearGradient id="gradient13" x1="25.9259%" y1="-31.8165%" x2="125.892%" y2="109.2122%">
			<stop stop-color="#4bcded" stop-opacity="1" offset="0%"/>
			<stop stop-color="#255dc1" stop-opacity="1" offset="100%"/>
		</linearGradient>
	</defs>
	<path id="214" opacity="0.3373" d="M 551.0762 65.7441 L 438.791 65.7441 C 432.752 65.7441 427.8564 60.8486 427.8564 54.8096 L 427.8564 11.7363 C 427.8564 5.6978 432.752 0.8018 438.791 0.8018 L 551.0762 0.8018 C 557.1152 0.8018 562.0107 5.6978 562.0107 11.7363 L 562.0107 54.8096 C 562.0107 60.8486 557.1152 65.7441 551.0762 65.7441 Z" fill="url(#gradient1)"/>
	<path id="213" opacity="0.3373" d="M 110.9043 368.3799 L 14.7129 368.3799 C 6.6162 368.3799 0.0527 361.8164 0.0527 353.7207 L 0.0527 257.5283 C 0.0527 249.4326 6.6162 242.8691 14.7129 242.8691 L 110.9043 242.8691 C 119.001 242.8691 125.5645 249.4326 125.5645 257.5283 L 125.5645 353.7207 C 125.5645 361.8164 119.001 368.3799 110.9043 368.3799 Z" fill="url(#gradient2)"/>
	<path id="212" d="M 533.1113 98.4512 L 533.1113 98.4512 L 533.1113 98.4512 Z" stroke="#f5fafd" stroke-width="4" fill="none"/>
	<path id="211" d="M 533.1113 93.4639 L 533.1113 31.7393 C 533.1113 26.9463 529.2256 23.061 524.4326 23.061 L 332.9512 23.061 L 332.9512 23.061 " stroke="#f5fafd" stroke-width="4" fill="none"/>
	<path id="210" d="M 330.457 23.061 L 330.457 23.061 L 330.457 23.061 Z" stroke="#f5fafd" stroke-width="4" fill="none"/>
	<path id="209" d="M 504.2441 328.6807 L 52.1797 328.6807 C 49.667 328.6807 47.6299 326.6436 47.6299 324.1309 L 47.6299 44.562 L 508.793 44.562 L 508.793 324.1309 C 508.793 326.6436 506.7559 328.6807 504.2441 328.6807 Z" fill="#ffffff"/>
	<path id="208" d="M 508.793 44.562 L 47.6299 44.562 L 47.6299 40.186 C 47.6299 37.5776 49.7451 35.4634 52.3535 35.4634 L 504.2441 35.4634 C 506.7559 35.4634 508.793 37.5 508.793 40.0127 L 508.793 44.562 Z" fill="url(#gradient3)"/>
	<path id="207" d="M 566.6367 221.791 L 444.3564 221.791 C 442.2959 221.791 440.625 223.4619 440.625 225.5225 L 440.625 292.7139 C 440.625 294.7754 442.2959 296.4453 444.3564 296.4453 L 566.6367 296.4453 C 568.6982 296.4453 570.3691 294.7754 570.3691 292.7139 L 570.3691 225.5225 C 570.3691 223.4619 568.6982 221.791 566.6367 221.791 Z" fill="url(#gradient4)"/>
	<path id="206" d="M 419.5186 231.4932 L 190.8545 231.4932 C 188.6094 229.248 187.3506 227.9893 185.1064 225.7441 L 185.1064 96.5347 C 185.1064 93.3599 187.6797 90.7866 190.8545 90.7866 L 419.5186 90.7866 C 422.6934 90.7866 425.2666 93.3599 425.2666 96.5347 L 425.2666 225.7451 C 425.2666 228.9189 422.6934 231.4932 419.5186 231.4932 Z" fill="#eaeaea"/>
	<image id="2052" x="168" y="73" width="265" height="166" xlink:href="Clinical Documents Viewer.svg.images/2051.png"/>
	<path id="204" d="M 419.5186 231.4932 L 190.8545 231.4932 C 188.6094 229.248 187.3506 227.9893 185.1064 225.7441 L 185.1064 96.5347 C 185.1064 93.3599 187.6797 90.7866 190.8545 90.7866 L 419.5186 90.7866 C 422.6934 90.7866 425.2666 93.3599 425.2666 96.5347 L 425.2666 225.7451 C 425.2666 228.9189 422.6934 231.4932 419.5186 231.4932 Z" fill="#f5fafd"/>
	<path id="203" d="M 419.5186 231.4932 L 190.8545 231.4932 C 188.6094 229.248 187.3506 227.9893 185.1064 225.7441 L 185.1064 96.5347 C 185.1064 93.3599 187.6797 90.7866 190.8545 90.7866 L 419.5186 90.7866 C 422.6934 90.7866 425.2666 93.3599 425.2666 96.5347 L 425.2666 225.7451 C 425.2666 228.9189 422.6934 231.4932 419.5186 231.4932 Z" stroke="#f3f3f3" stroke-width="1" fill="none"/>
	<path id="202" d="M 216.9473 246.9463 L 78.5811 246.9463 C 77.2529 245.6182 76.4941 244.8594 75.165 243.5303 L 75.165 217.207 C 75.165 215.3203 76.6943 213.791 78.5811 213.791 L 216.9473 213.791 C 218.834 213.791 220.3633 215.3203 220.3633 217.207 L 220.3633 243.5313 C 220.3633 245.417 218.834 246.9463 216.9473 246.9463 Z" fill="#eaeaea"/>
	<image id="2012" x="58" y="196" width="170" height="58" xlink:href="Clinical Documents Viewer.svg.images/2011.png"/>
	<path id="200" d="M 216.9473 246.9463 L 78.5801 246.9463 C 76.7021 246.9463 75.165 245.4102 75.165 243.5313 L 75.165 217.207 C 75.165 215.3203 76.6943 213.791 78.5811 213.791 L 216.9473 213.791 C 218.834 213.791 220.3633 215.3203 220.3633 217.207 L 220.3633 243.5313 C 220.3633 245.417 218.834 246.9463 216.9473 246.9463 Z" fill="url(#gradient5)"/>
	<path id="199" d="M 216.9473 293.96 L 78.5811 293.96 C 77.2529 292.6318 76.4941 291.873 75.165 290.5439 L 75.165 264.2207 C 75.165 262.334 76.6943 260.8047 78.5811 260.8047 L 216.9473 260.8047 C 218.834 260.8047 220.3633 262.334 220.3633 264.2207 L 220.3633 290.5449 C 220.3633 292.4307 218.834 293.96 216.9473 293.96 Z" fill="#eaeaea"/>
	<path id="198" d="M 216.9473 293.96 L 78.5801 293.96 C 76.7021 293.96 75.165 292.4238 75.165 290.5449 L 75.165 264.2207 C 75.165 262.334 76.6943 260.8047 78.5811 260.8047 L 216.9473 260.8047 C 218.834 260.8047 220.3633 262.334 220.3633 264.2207 L 220.3633 290.5449 C 220.3633 292.4307 218.834 293.96 216.9473 293.96 Z" fill="#f5fafd"/>
	<path id="197" d="M 216.9473 293.96 L 78.5801 293.96 C 76.7021 293.96 75.165 292.4238 75.165 290.5449 L 75.165 264.2207 C 75.165 262.334 76.6943 260.8047 78.5811 260.8047 L 216.9473 260.8047 C 218.834 260.8047 220.3633 262.334 220.3633 264.2207 L 220.3633 290.5449 C 220.3633 292.4307 218.834 293.96 216.9473 293.96 Z" stroke="#f3f3f3" stroke-width="1" fill="none"/>
	<image id="1962" x="186" y="93" width="89" height="101" xlink:href="Clinical Documents Viewer.svg.images/1961.png"/>
	<g id="195">
		<path d="M 267.3896 181.019 C 267.3896 184.1133 264.8809 186.6216 261.7871 186.6216 L 209 186.6216 C 205.8174 186.6216 203.2383 184.0415 203.2383 180.8589 L 203.2373 173.4526 L 203.2373 116.0142 C 203.2373 112.9199 205.7461 110.4121 208.8398 110.4121 L 261.7871 110.4121 C 264.8809 110.4121 267.3896 112.9199 267.3896 116.0142 L 267.3896 181.019 Z" fill="#cee3f8"/>
	</g>
	<path id="194" d="M 235.3135 152.0039 L 235.3135 152.0039 C 226.7012 152.0039 219.7197 158.5576 219.7197 166.6421 L 219.7197 166.7188 L 219.7197 166.7188 L 250.9082 166.7188 L 250.9082 166.7188 L 250.9082 166.6421 C 250.9082 158.5576 243.9258 152.0039 235.3135 152.0039 Z" fill="#f5fafd"/>
	<path id="193" d="M 236.5127 147.188 C 240.5225 146.647 243.3965 143.248 243.3965 139.4448 L 243.3965 137.2959 C 243.3965 133.4927 240.5225 130.0942 236.5127 129.5532 C 231.5156 128.8794 227.2305 132.4995 227.2305 137.0596 L 227.2305 139.6816 C 227.2305 144.2417 231.5156 147.8618 236.5127 147.188 Z" fill="#f5fafd"/>
	<path id="192" d="M 566.6367 156.8384 L 444.3564 156.8384 C 442.2959 156.8384 440.625 158.5093 440.625 160.5703 L 440.625 227.7617 C 440.625 229.8223 442.2959 231.4932 444.3564 231.4932 L 566.6367 231.4932 C 568.6982 231.4932 570.3691 229.8223 570.3691 227.7617 L 570.3691 160.5703 C 570.3691 158.5093 568.6982 156.8384 566.6367 156.8384 Z" fill="url(#gradient6)"/>
	<path id="191" d="M 56.1016 40.0127 C 56.1016 41.0195 55.2852 41.8359 54.2783 41.8359 C 53.2715 41.8359 52.4551 41.0195 52.4551 40.0127 C 52.4551 39.0059 53.2715 38.1895 54.2783 38.1895 C 55.2852 38.1895 56.1016 39.0059 56.1016 40.0127 Z" fill="#cee3f8"/>
	<path id="190" d="M 65.7627 40.0127 C 65.7627 41.0195 64.9463 41.8359 63.9395 41.8359 C 62.9326 41.8359 62.1162 41.0195 62.1162 40.0127 C 62.1162 39.0059 62.9326 38.1895 63.9395 38.1895 C 64.9463 38.1895 65.7627 39.0059 65.7627 40.0127 Z" fill="#cee3f8"/>
	<path id="189" d="M 75.4238 40.0127 C 75.4238 41.0195 74.6074 41.8359 73.6006 41.8359 C 72.5938 41.8359 71.7773 41.0195 71.7773 40.0127 C 71.7773 39.0059 72.5938 38.1895 73.6006 38.1895 C 74.6074 38.1895 75.4238 39.0059 75.4238 40.0127 Z" fill="#cee3f8"/>
	<path id="188" d="M 281.2373 128.9033 L 331.9854 128.9033 L 331.9854 128.9033 " stroke="#cee3f8" stroke-width="4" fill="none"/>
	<path id="187" d="M 281.2373 140.4839 L 349.0654 140.4839 L 349.0654 140.4839 " stroke="#cee3f8" stroke-width="4" fill="none"/>
	<path id="186" d="M 281.2373 161.7129 L 386.3271 161.7129 L 386.3271 161.7129 " stroke="#cee3f8" stroke-width="4" fill="none"/>
	<path id="185" d="M 281.2373 171.7612 L 386.3271 171.7612 L 386.3271 171.7612 " stroke="#cee3f8" stroke-width="4" fill="none"/>
	<path id="184" d="M 281.2373 181.8091 L 335.458 181.8091 L 335.458 181.8091 " stroke="#cee3f8" stroke-width="4" fill="none"/>
	<path id="183" d="M 281.2373 116.7949 L 305.8076 116.7949 L 305.8076 116.7949 " stroke="#cee3f8" stroke-width="4" fill="none"/>
	<path id="182" d="M 460.542 191.0879 L 534.293 191.0879 L 534.293 191.0879 " stroke="#cee3f8" stroke-width="4" fill="none"/>
	<path id="181" d="M 460.542 199.7217 L 534.293 199.7217 L 534.293 199.7217 " stroke="#cee3f8" stroke-width="4" fill="none"/>
	<path id="180" d="M 460.542 208.3555 L 498.5938 208.3555 L 498.5938 208.3555 " stroke="#cee3f8" stroke-width="4" fill="none"/>
	<path id="179" d="M 460.542 249.4404 L 496.1563 249.4404 L 496.1563 249.4404 " stroke="#cee3f8" stroke-width="4" fill="none"/>
	<path id="178" d="M 460.542 263.9434 L 534.293 263.9434 L 534.293 263.9434 " stroke="#cee3f8" stroke-width="4" fill="none"/>
	<path id="177" d="M 460.542 272.5771 L 534.293 272.5771 L 534.293 272.5771 " stroke="#cee3f8" stroke-width="4" fill="none"/>
	<path id="176" d="M 460.542 281.2109 L 498.5938 281.2109 L 498.5938 281.2109 " stroke="#cee3f8" stroke-width="4" fill="none"/>
	<path id="175" d="M 88.8428 230.3691 L 162.2852 230.3691 L 162.2852 230.3691 " stroke="#cee3f8" stroke-width="4" fill="none"/>
	<path id="174" d="M 88.8428 277.3828 L 162.2852 277.3828 L 162.2852 277.3828 " stroke="#cee3f8" stroke-width="4" fill="none"/>
	<path id="173" d="M 198.4922 230.3691 L 208.1826 230.3691 L 208.1826 230.3691 " stroke="#cee3f8" stroke-width="4" fill="none"/>
	<path id="172" d="M 198.4922 277.3828 L 208.1826 277.3828 L 208.1826 277.3828 " stroke="#cee3f8" stroke-width="4" fill="none"/>
	<path id="171" d="M 162.2578 189.7388 L 78.5811 189.7388 C 77.2529 188.4102 76.4941 187.6514 75.165 186.3228 L 75.165 95.2188 C 75.165 93.3325 76.6943 91.8032 78.5811 91.8032 L 162.2578 91.8032 C 164.1445 91.8032 165.6738 93.3325 165.6738 95.2188 L 165.6738 186.3232 C 165.6738 188.2095 164.1445 189.7388 162.2578 189.7388 Z" fill="#eaeaea"/>
	<image id="1702" x="58" y="74" width="115" height="123" xlink:href="Clinical Documents Viewer.svg.images/1701.png"/>
	<path id="169" d="M 162.2578 189.7388 L 78.5801 189.7388 C 76.7021 189.7388 75.165 188.2017 75.165 186.3237 L 75.165 95.2188 C 75.165 93.3325 76.6943 91.8032 78.5811 91.8032 L 162.2578 91.8032 C 164.1445 91.8032 165.6738 93.3325 165.6738 95.2188 L 165.6738 186.3232 C 165.6738 188.2095 164.1445 189.7388 162.2578 189.7388 Z" fill="url(#gradient7)"/>
	<path id="168" d="M 99.5809 110 C 98.0994 110.2075 97.0759 111.5527 97.239 113.0254 C 97.2134 119.7188 97.2338 126.4072 97.2338 133.1006 C 95.8746 133.2217 94.2964 133.0898 93.2479 134.1323 C 92.1531 135.0278 91.9903 136.5049 92.0055 137.8203 L 92.0005 154.5508 C 91.9903 155.8613 92.1226 157.3281 93.1713 158.2598 C 94.22 159.3472 95.8391 159.2412 97.2288 159.3574 C 97.2696 163.6475 97.1575 167.9424 97.2745 172.2383 C 97.2288 173.5078 98.252 174.4434 99.4076 174.7573 L 142.5221 174.7573 C 143.5607 174.3071 144.5281 173.4419 144.4719 172.2129 C 144.584 167.9326 144.4719 163.6426 144.5127 159.3574 C 145.8975 159.2305 147.5162 159.3623 148.5651 158.2695 C 149.619 157.334 149.7512 155.8613 149.741 154.541 L 149.7361 137.8105 C 149.7512 136.5 149.5832 135.0278 148.4937 134.1323 C 147.4452 133.0898 145.8669 133.2217 144.5078 133.1006 C 144.467 130.6309 144.6044 128.1572 144.467 125.6934 C 144.4262 124.7471 143.6116 124.0947 143.067 123.3965 C 139.0502 118.9697 135.2373 114.356 131.139 110 L 99.5809 110 ZM 99.7947 112.5498 L 129.3828 112.5498 L 129.3776 124.6719 C 129.3267 125.5117 129.515 126.6699 130.5687 126.751 C 134.3665 126.918 138.1747 126.7051 141.9725 126.8521 C 141.9318 128.9517 141.9571 131.0566 141.9419 133.1611 L 99.7996 133.1611 L 99.7947 112.5498 ZM 95.9611 137.2588 C 97.7685 137.2637 99.5756 137.2285 101.3778 137.2944 C 102.6505 141.3672 103.6789 145.5 104.6767 149.6436 C 105.756 145.4746 106.9268 141.3418 108.3268 137.2686 C 110.0934 137.2539 111.8651 137.2539 113.6315 137.2637 L 114.6141 155.0771 C 113.2957 155.0874 111.9769 155.0923 110.6584 155.082 C 110.4141 150.3721 110.3632 145.6523 110.1849 140.9365 C 108.775 145.561 107.4615 150.21 105.9596 154.8091 L 102.7982 154.7988 C 101.4594 150.2256 100.2883 145.6064 99.255 140.9521 C 98.9343 145.6572 98.8324 150.377 98.5627 155.082 C 97.3104 155.0874 96.0528 155.0874 94.8005 155.082 L 95.9611 137.2588 ZM 117.7807 137.4712 C 121.2118 137.3604 124.9586 136.5254 128.1506 138.1895 C 131.6685 140.1831 131.2205 145.9302 127.774 147.7568 C 125.9465 148.7686 123.798 148.8086 121.7617 148.7383 C 121.7567 150.8525 121.7667 152.9678 121.7567 155.082 C 120.4176 155.0874 119.0788 155.0923 117.7399 155.0874 C 117.7603 149.2139 117.684 143.3447 117.7807 137.4712 ZM 138.6838 137.8662 C 140.3127 137.9014 141.9469 137.8862 143.576 137.8965 C 143.5709 141.2505 143.5659 144.6099 143.576 147.9639 C 144.2684 147.9741 144.9607 147.979 145.6581 147.9844 C 145.6581 148.9756 145.6634 149.9624 145.6683 150.9541 L 143.5709 150.9941 C 143.576 152.3506 143.5659 153.7109 143.576 155.0674 C 142.2981 155.082 141.0204 155.1025 139.7426 155.082 C 139.7426 153.7163 139.7323 152.3506 139.7375 150.9844 C 137.1819 150.9746 134.6263 150.9844 132.0707 150.9795 C 132.1115 149.79 131.801 148.46 132.6255 147.458 C 134.6772 144.2759 136.5966 141.0176 138.6838 137.8662 ZM 99.7894 159.3066 L 141.9521 159.3066 L 141.9521 171.5195 L 99.7894 171.5195 L 99.7894 159.3066 ZM 135.8227 147.9688 C 137.126 147.979 138.4342 147.979 139.7375 147.9741 C 139.7119 145.5811 139.7681 143.1934 139.8698 140.8057 C 138.6736 143.2793 137.3092 145.6572 135.8227 147.9688 ZM 121.7617 140.2998 L 121.7617 145.6221 C 122.9377 145.6572 124.2104 145.7891 125.2642 145.1563 C 126.8374 144.3262 127.0817 141.7412 125.5646 140.7446 C 124.4495 139.9858 123.0294 140.2236 121.7617 140.2998 Z" fill="#ffffff"/>
	<path id="167" d="M 421.7881 349.0537 L 338.1113 349.0537 C 336.7832 347.7256 336.0234 346.9668 334.6953 345.6387 L 334.6953 254.5342 C 334.6953 252.6475 336.2246 251.1182 338.1113 251.1182 L 421.7881 251.1182 C 423.6748 251.1182 425.2041 252.6475 425.2041 254.5342 L 425.2041 345.6387 C 425.2041 347.5244 423.6748 349.0537 421.7881 349.0537 Z" fill="#eaeaea"/>
	<image id="1662" x="317" y="234" width="116" height="123" xlink:href="Clinical Documents Viewer.svg.images/1661.png"/>
	<path id="165" d="M 421.7881 349.0537 L 338.1104 349.0537 C 336.2324 349.0537 334.6953 347.5176 334.6953 345.6387 L 334.6953 254.5342 C 334.6953 252.6475 336.2246 251.1182 338.1113 251.1182 L 421.7881 251.1182 C 423.6748 251.1182 425.2041 252.6475 425.2041 254.5342 L 425.2041 345.6387 C 425.2041 347.5244 423.6748 349.0537 421.7881 349.0537 Z" fill="url(#gradient8)"/>
	<path id="164" d="M 354.8132 329.0166 C 355.9639 331.8047 358.5856 333.8984 361.6757 334 L 395.7795 334 C 398.8696 333.8984 401.4863 331.8047 402.6216 329.0068 C 386.6873 328.9761 370.7478 328.9609 354.8132 329.0166 ZM 353.9121 299.7544 C 351.4229 299.9014 349.3915 302.188 349.4984 304.6567 C 349.4526 309.8779 349.4323 315.0991 349.5086 320.3203 C 349.4119 323.1074 352.0336 325.3643 354.7727 325.1816 L 402.6827 325.1816 C 405.2128 325.3286 407.7583 323.4263 407.8958 320.8262 C 408.1147 316.126 407.9059 311.4058 407.9976 306.6953 C 407.9874 304.8086 408.1045 302.5977 406.5927 301.1914 C 405.218 299.6685 403.0188 299.6328 401.125 299.6631 C 385.389 299.7441 369.6431 299.5571 353.9121 299.7544 ZM 386.5854 305.4863 C 388.856 305.2993 391.1418 305.4004 393.4172 305.4258 C 394.8225 305.2842 395.0413 307.6113 393.8297 307.9858 C 392.0989 308.1577 390.3525 308.021 388.6217 308.0566 L 388.6217 311.3501 C 389.6755 311.3604 390.7446 311.2793 391.7883 311.4614 C 392.7046 311.689 392.72 313.313 391.8291 313.5913 C 390.7703 313.7783 389.6857 313.7026 388.6168 313.7129 C 388.5862 315.3975 388.7236 317.0923 388.5504 318.7773 C 388.2554 319.9912 386.6975 319.48 385.8115 319.48 C 385.2466 315.7568 385.7352 311.9619 385.5469 308.208 C 385.6333 307.2979 385.2312 305.5674 386.5854 305.4863 ZM 362.8112 307.1914 C 362.7501 306.4121 362.9283 305.3604 363.9666 305.4609 C 365.9674 305.3301 368.0343 305.2539 369.9891 305.7646 C 372.7688 306.5947 373.2068 310.3232 371.9695 312.5488 C 370.7222 314.6338 368.0038 314.4868 365.8809 314.5371 C 365.8707 315.9336 365.9776 317.3398 365.825 318.7363 C 365.4839 320.1479 362.6432 319.8896 362.8314 318.2964 C 362.7908 314.5928 362.8314 310.8945 362.8112 307.1914 ZM 374.2706 305.7749 C 375.9761 305.082 377.9004 305.416 379.6924 305.5166 C 381.7034 305.5977 383.475 307.2573 383.5208 309.2813 C 383.6174 311.8916 383.9229 314.6133 383.2001 317.1582 C 382.197 319.7227 379.0205 319.7129 376.699 319.6826 C 375.8182 319.5664 374.3877 319.915 374.0466 318.7974 C 373.8787 315.2607 374.0516 311.7197 373.9703 308.1777 C 374.0365 307.3838 373.8228 306.4932 374.2706 305.7749 ZM 365.8911 308.0264 L 365.8859 312.2002 C 366.8583 312.1289 367.8817 312.2759 368.8131 311.9419 C 369.8517 311.2031 369.7806 309.5645 369.1646 308.5776 C 368.2737 307.7939 366.9652 308.1528 365.8911 308.0264 ZM 377.0554 308.0161 L 377.0554 317.042 C 378.1703 316.8799 379.9623 317.3857 380.4 315.9741 C 380.6953 313.814 380.6036 311.5981 380.4714 309.4277 C 380.3135 307.7329 378.2516 308.1172 377.0554 308.0161 ZM 391.3455 270.4063 C 391.3148 273.9473 391.3098 277.4941 391.3455 281.0405 C 394.8837 281.2329 398.4319 281.1064 401.9751 281.1167 C 398.7018 277.3018 395.0057 273.8413 391.3455 270.4063 ZM 361.1567 269.2427 C 357.6846 269.5615 354.6658 272.5059 354.5741 276.0166 C 354.4518 282.6343 354.5639 289.2617 354.5284 295.8789 L 402.9219 295.8789 L 402.9271 284.9307 C 399.6079 284.9111 396.2886 284.9414 392.9694 284.9365 C 391.4777 284.9307 389.7977 284.7949 388.7388 283.6055 C 387.6035 282.5229 387.4967 280.8687 387.4967 279.4014 L 387.5068 269.2427 L 361.1567 269.2427 Z" fill="#ffffff"/>
	<image id="1632" x="215" y="234" width="116" height="123" xlink:href="Clinical Documents Viewer.svg.images/1631.png"/>
	<path id="162" d="M 319.877 349.0537 L 236.1992 349.0537 C 234.3213 349.0537 232.7842 347.5176 232.7842 345.6387 L 232.7842 254.5342 C 232.7842 252.6475 234.3135 251.1182 236.2002 251.1182 L 319.877 251.1182 C 321.7637 251.1182 323.293 252.6475 323.293 254.5342 L 323.293 345.6387 C 323.293 347.5244 321.7637 349.0537 319.877 349.0537 Z" fill="url(#gradient9)"/>
	<g id="161">
		<path d="M 256.3265 269 L 287.256 269 C 291.1282 273.2324 294.8071 277.6426 298.5631 281.9941 C 300.8864 284.4351 299.7538 288.1064 299.9764 291.1484 C 301.8062 291.8076 304.7393 291.9658 304.788 294.584 C 305.1169 300.8149 305.0006 307.0854 304.8555 313.3164 C 305.1264 316.2012 302.077 316.811 299.9958 317.333 C 299.5894 322.1958 301.0995 327.5112 298.6888 332 L 256.8881 332 C 255.7456 331.0059 254.8452 329.7061 255.0389 328.1113 C 254.9131 324.5186 255.0677 320.9258 255.0195 317.333 C 253.2772 316.7129 250.4694 316.5947 250.2662 314.1631 C 249.889 307.6563 249.9467 301.0908 250.2274 294.5742 C 250.2662 291.9458 253.2191 291.8076 255.0483 291.1387 C 255.0583 285.3799 254.9808 279.6113 255.0096 273.8428 C 254.8745 272.1006 255.5811 270.5161 256.3265 269 ZM 257.3915 271.52 C 257.5073 278.1943 257.4297 284.8682 257.4397 291.5322 C 270.8182 291.5718 284.1873 291.5322 297.5563 291.5615 C 297.5563 289.4746 297.5563 287.3979 297.5662 285.3213 C 293.6259 285.3701 289.6955 285.3506 285.7651 285.2422 C 285.5136 280.6553 285.6299 276.0576 285.6105 271.4707 C 276.2007 271.4902 266.8008 271.3921 257.3915 271.52 ZM 261.6896 294.6528 C 261.5635 299.0723 261.9898 303.522 261.4476 307.9121 C 261.1763 310.3633 258.4172 309.7041 256.733 309.7725 C 256.5974 310.8848 256.4716 311.9873 256.3459 313.0996 C 259.4241 313.4541 263.7128 313.6807 265.0585 310.0879 C 266.433 305.0869 265.5132 299.7813 265.7652 294.6528 C 264.41 294.6626 263.0448 294.6626 261.6896 294.6528 ZM 269.1921 294.8887 C 269.1921 300.9526 269.1921 307.0166 269.1823 313.0801 C 270.5374 313.0605 271.8931 313.0605 273.2482 313.0801 C 273.2482 310.9639 273.2289 308.8379 273.2289 306.7212 C 275.5328 306.3472 278.1467 306.5049 280.0536 304.9004 C 283.0646 302.6855 282.8226 297.252 279.4344 295.5093 C 276.2394 293.9639 272.5804 294.7314 269.1921 294.8887 ZM 288.6017 295.9619 C 283.2386 298.7578 282.5125 307.4102 287.1789 311.2002 C 290.8768 313.9863 295.7847 313.3262 299.9864 312.3418 C 299.9764 309.0737 299.9864 305.7959 299.9864 302.5278 C 297.7307 302.5278 295.475 302.5479 293.2194 302.5479 C 293.2292 303.6201 293.2387 304.7031 293.2582 305.7764 C 293.9454 305.7861 295.3299 305.7959 296.0172 305.8057 C 296.0172 306.8193 296.0172 308.8276 296.0172 309.832 C 294.4295 309.6846 292.6966 309.999 291.2251 309.2217 C 287.4398 307.2432 287.3434 300.6772 291.1575 298.6787 C 293.5002 297.4385 296.1817 298.1963 298.6501 298.4424 C 298.8339 297.6357 299.1923 296.0112 299.3761 295.1943 C 295.8333 294.377 291.8736 294.0327 288.6017 295.9619 ZM 257.3721 317.0278 C 257.4785 320.9653 257.4686 324.9121 257.4397 328.8599 C 270.8088 328.8696 284.1778 328.8599 297.5468 328.8599 C 297.5951 324.873 297.5756 320.8965 297.5081 316.9092 C 284.1291 317.0571 270.7407 316.8506 257.3721 317.0278 Z" fill="#ffffff"/>
		<path d="M 273.2677 297.5664 C 274.7779 297.8125 276.2881 298.0879 277.7885 298.354 C 277.8948 299.7129 278.4081 301.3071 277.3721 302.459 C 276.065 303.0298 274.6517 303.2661 273.287 303.6201 C 273.2677 301.6025 273.2578 299.5845 273.2677 297.5664 Z" fill="#ffffff"/>
	</g>
	<path id="160" d="M 551.4287 143.0366 L 499.6553 143.0366 C 490.2432 143.0366 482.542 135.3359 482.542 125.9233 L 482.542 125.9224 C 482.542 116.4702 490.2041 108.8076 499.6563 108.8076 L 551.4287 108.8076 C 560.8809 108.8076 568.543 116.4702 568.543 125.9224 L 568.543 125.9224 C 568.543 135.3745 560.8809 143.0366 551.4287 143.0366 Z" stroke="#f3f3f3" stroke-width="1" fill="none"/>
	<path id="159" d="M 551.4287 143.0366 L 499.6553 143.0366 C 490.2432 143.0366 482.542 135.3359 482.542 125.9233 L 482.542 125.9224 C 482.542 116.4702 490.2041 108.8076 499.6563 108.8076 L 551.4287 108.8076 C 560.8809 108.8076 568.543 116.4702 568.543 125.9224 L 568.543 125.9224 C 568.543 135.3745 560.8809 143.0366 551.4287 143.0366 Z" fill="#f5fafd"/>
	<image id="1582" x="473" y="97" width="48" height="48" xlink:href="Clinical Documents Viewer.svg.images/1581.png"/>
	<path id="157" d="M 502.1523 138.2881 L 501.4082 138.2881 C 494.5781 138.2881 489.042 132.7515 489.042 125.9224 L 489.042 125.9219 C 489.042 119.0928 494.5781 113.5562 501.4082 113.5562 L 502.1523 113.5562 C 508.9814 113.5562 514.5176 119.0928 514.5176 125.9219 L 514.5176 125.9224 C 514.5176 132.7515 508.9814 138.2881 502.1523 138.2881 Z" fill="url(#gradient10)"/>
	<path id="156" d="M 459.1416 335.6006 L 459.1416 335.6006 L 459.1416 335.6006 Z" stroke="#0088ff" stroke-width="1" fill="none"/>
	<path id="155" d="M 532.4902 335.6006 L 532.4902 335.6006 L 532.4902 335.6006 Z" stroke="#0088ff" stroke-width="1" fill="none"/>
	<path id="154" d="M 369.5771 79.8164 L 369.5771 79.8164 L 369.5771 79.8164 Z" stroke="#cee3f8" stroke-width="4" fill="none"/>
	<path id="153" d="M 369.5771 74.7861 L 369.5771 68.1177 C 369.5771 64.0518 366.2813 60.7559 362.2158 60.7559 L 124.7168 60.7559 C 120.0596 60.7559 116.2842 64.5317 116.2842 69.189 L 116.2842 79.4194 L 116.2842 79.4194 " stroke="#cee3f8" stroke-width="4" fill="none"/>
	<path id="152" d="M 116.2842 81.9346 L 116.2842 81.9346 L 116.2842 81.9346 Z" stroke="#cee3f8" stroke-width="4" fill="none"/>
	<path id="151" d="M 175.8633 67.7505 L 145.6064 67.7505 C 139.2188 67.7505 134.04 62.5723 134.04 56.1846 L 134.04 27.4868 C 134.04 21.0991 139.2188 15.9209 145.6064 15.9209 L 175.8633 15.9209 C 182.25 15.9209 187.4287 21.0991 187.4287 27.4868 L 187.4287 56.1846 C 187.4287 62.5723 182.25 67.7505 175.8633 67.7505 Z" fill="#eaeaea"/>
	<path id="150" d="M 175.8633 67.7505 L 145.6064 67.7505 C 139.2188 67.7505 134.04 62.5723 134.04 56.1846 L 134.04 27.4868 C 134.04 21.0991 139.2188 15.9209 145.6064 15.9209 L 175.8633 15.9209 C 182.25 15.9209 187.4287 21.0991 187.4287 27.4868 L 187.4287 56.1846 C 187.4287 62.5723 182.25 67.7505 175.8633 67.7505 Z" fill="#f5fafd"/>
	<path id="149" d="M 175.8633 67.7505 L 145.6064 67.7505 C 139.2188 67.7505 134.04 62.5723 134.04 56.1846 L 134.04 27.4868 C 134.04 21.0991 139.2188 15.9209 145.6064 15.9209 L 175.8633 15.9209 C 182.25 15.9209 187.4287 21.0991 187.4287 27.4868 L 187.4287 56.1846 C 187.4287 62.5723 182.25 67.7505 175.8633 67.7505 Z" stroke="#f3f3f3" stroke-width="1" fill="none"/>
	<path id="148" d="M 169.2969 41.8359 C 169.2969 46.5649 165.4639 50.3984 160.7344 50.3984 C 156.0049 50.3984 152.1719 46.5649 152.1719 41.8359 C 152.1719 37.1069 156.0049 33.2729 160.7344 33.2729 C 165.4639 33.2729 169.2969 37.1069 169.2969 41.8359 Z" fill="url(#gradient11)"/>
	<path id="147" d="M 160.7344 38.354 L 160.7344 45.3174 L 160.7344 45.3174 " stroke="#f3f3f3" stroke-width="1" fill="none"/>
	<path id="146" d="M 164.2158 41.8359 L 157.2529 41.8359 L 157.2529 41.8359 " stroke="#f3f3f3" stroke-width="1" fill="none"/>
	<path id="145" d="M 239.9287 67.7505 L 209.6719 67.7505 C 203.2842 67.7505 198.1064 62.5723 198.1064 56.1846 L 198.1064 27.4868 C 198.1064 21.0991 203.2842 15.9209 209.6719 15.9209 L 239.9287 15.9209 C 246.3164 15.9209 251.4951 21.0991 251.4951 27.4868 L 251.4951 56.1846 C 251.4951 62.5723 246.3164 67.7505 239.9287 67.7505 Z" fill="#eaeaea"/>
	<path id="144" d="M 239.9287 67.7505 L 209.6719 67.7505 C 203.2842 67.7505 198.1064 62.5723 198.1064 56.1846 L 198.1064 27.4868 C 198.1064 21.0991 203.2842 15.9209 209.6719 15.9209 L 239.9287 15.9209 C 246.3164 15.9209 251.4951 21.0991 251.4951 27.4868 L 251.4951 56.1846 C 251.4951 62.5723 246.3164 67.7505 239.9287 67.7505 Z" fill="#f5fafd"/>
	<path id="143" d="M 239.9287 67.7505 L 209.6719 67.7505 C 203.2842 67.7505 198.1064 62.5723 198.1064 56.1846 L 198.1064 27.4868 C 198.1064 21.0991 203.2842 15.9209 209.6719 15.9209 L 239.9287 15.9209 C 246.3164 15.9209 251.4951 21.0991 251.4951 27.4868 L 251.4951 56.1846 C 251.4951 62.5723 246.3164 67.7505 239.9287 67.7505 Z" stroke="#f3f3f3" stroke-width="1" fill="none"/>
	<path id="142" d="M 233.3633 41.8359 C 233.3633 46.5649 229.5293 50.3984 224.8008 50.3984 C 220.0713 50.3984 216.2373 46.5649 216.2373 41.8359 C 216.2373 37.1069 220.0713 33.2729 224.8008 33.2729 C 229.5293 33.2729 233.3633 37.1069 233.3633 41.8359 Z" fill="url(#gradient12)"/>
	<path id="141" d="M 221.5107 42.6543 L 223.3535 44.562 L 227.9219 39.374 L 227.9219 39.374 " stroke="#f3f3f3" stroke-width="1" fill="none"/>
	<path id="140" d="M 303.9951 67.7505 L 273.7383 67.7505 C 267.3506 67.7505 262.1719 62.5723 262.1719 56.1846 L 262.1719 27.4868 C 262.1719 21.0991 267.3506 15.9209 273.7383 15.9209 L 303.9951 15.9209 C 310.3828 15.9209 315.5605 21.0991 315.5605 27.4868 L 315.5605 56.1846 C 315.5605 62.5723 310.3828 67.7505 303.9951 67.7505 Z" fill="#eaeaea"/>
	<path id="139" d="M 303.9951 67.7505 L 273.7383 67.7505 C 267.3506 67.7505 262.1719 62.5723 262.1719 56.1846 L 262.1719 27.4868 C 262.1719 21.0991 267.3506 15.9209 273.7383 15.9209 L 303.9951 15.9209 C 310.3828 15.9209 315.5605 21.0991 315.5605 27.4868 L 315.5605 56.1846 C 315.5605 62.5723 310.3828 67.7505 303.9951 67.7505 Z" fill="#f5fafd"/>
	<path id="138" d="M 303.9951 67.7505 L 273.7383 67.7505 C 267.3506 67.7505 262.1719 62.5723 262.1719 56.1846 L 262.1719 27.4868 C 262.1719 21.0991 267.3506 15.9209 273.7383 15.9209 L 303.9951 15.9209 C 310.3828 15.9209 315.5605 21.0991 315.5605 27.4868 L 315.5605 56.1846 C 315.5605 62.5723 310.3828 67.7505 303.9951 67.7505 Z" stroke="#f3f3f3" stroke-width="1" fill="none"/>
	<path id="137" d="M 297.4297 41.8359 C 297.4297 46.5649 293.5957 50.3984 288.8662 50.3984 C 284.1377 50.3984 280.3037 46.5649 280.3037 41.8359 C 280.3037 37.1069 284.1377 33.2729 288.8662 33.2729 C 293.5957 33.2729 297.4297 37.1069 297.4297 41.8359 Z" fill="url(#gradient13)"/>
	<path id="136" d="M 291.3281 39.374 L 286.4043 44.2979 L 286.4043 44.2979 " stroke="#f3f3f3" stroke-width="1" fill="none"/>
	<path id="135" d="M 291.3281 44.2974 L 286.4043 39.374 L 286.4043 39.374 " stroke="#f3f3f3" stroke-width="1" fill="none"/>
	<path id="134" d="M 147.7646 307.9023 L 147.7646 307.9023 L 147.7646 307.9023 Z" stroke="#f5fafd" stroke-width="4" fill="none"/>
	<path id="133" d="M 147.7646 312.8984 L 147.7646 359.3711 C 147.7646 364.999 152.3271 369.5615 157.9551 369.5615 L 422.7061 369.5615 L 422.7061 369.5615 " stroke="#f5fafd" stroke-width="4" fill="none"/>
	<path id="132" d="M 425.2041 369.5615 L 425.2041 369.5615 L 425.2041 369.5615 Z" stroke="#f5fafd" stroke-width="4" fill="none"/>
	<path d="M 461.6094 184 L 461.6094 179 L 471.4688 179 C 472.0938 179 472.625 178.7656 473.0781 178.2969 C 473.5156 177.8281 473.75 177.2656 473.75 176.6094 L 473.75 172.3906 C 473.75 171.75 473.5156 171.1875 473.0781 170.7188 C 472.625 170.25 472.0938 170 471.4688 170 L 460.0625 170 L 460.0625 184 L 461.6094 184 L 461.6094 184 ZM 461.8281 176.8125 C 461.6719 176.6875 461.6094 176.5313 461.6094 176.3438 L 461.6094 172.6719 C 461.6094 172.5 461.6719 172.3438 461.8281 172.2031 C 461.9688 172.0781 462.1406 172 462.3438 172 L 471.4688 172 C 471.6563 172 471.8281 172.0781 471.9844 172.2031 C 472.125 172.3438 472.2031 172.5 472.2031 172.6719 L 472.2031 176.3438 C 472.2031 176.5313 472.125 176.6875 471.9844 176.8125 C 471.8281 176.9375 471.6563 177 471.4688 177 L 462.3438 177 C 462.1406 177 461.9688 176.9375 461.8281 176.8125 L 461.8281 176.8125 Z" fill="#f7fafe"/>
	<path d="M 476.6406 184 L 476.6406 179 L 487.25 179 L 487.25 184 L 488.7813 184 L 488.7813 172.3281 C 488.7813 171.6875 488.5469 171.1406 488.1094 170.6875 C 487.6719 170.2344 487.125 170 486.5 170 L 477.375 170 C 476.75 170 476.2031 170.2344 475.7656 170.6875 C 475.3281 171.1406 475.1094 171.6875 475.1094 172.3281 L 475.1094 184 L 476.6406 184 L 476.6406 184 ZM 476.6406 172.6563 C 476.6406 172.4844 476.7031 172.3281 476.8594 172.2031 C 477 172.0781 477.1719 172 477.375 172 L 486.5 172 C 486.7031 172 486.875 172.0781 487.0313 172.2031 C 487.1719 172.3281 487.25 172.4844 487.25 172.6563 L 487.25 177 L 476.6406 177 L 476.6406 172.6563 L 476.6406 172.6563 Z" fill="#f7fafe"/>
	<path d="M 504.7031 184 L 504.7031 182 L 493.3438 182 C 493.1406 182 492.9688 181.9375 492.8281 181.7969 C 492.6719 181.6719 492.6094 181.5 492.6094 181.2969 L 492.6094 172.7031 C 492.6094 172.5156 492.6719 172.3438 492.8281 172.2031 C 492.9688 172.0781 493.1406 172 493.3438 172 L 504.7031 172 L 504.7031 170 L 493.3438 170 C 492.7031 170 492.1563 170.2344 491.7188 170.6875 C 491.2813 171.1406 491.0625 171.6875 491.0625 172.3281 L 491.0625 181.6719 C 491.0625 182.3281 491.2813 182.875 491.7188 183.3281 C 492.1563 183.7813 492.7031 184 493.3438 184 L 504.7031 184 L 504.7031 184 Z" fill="#f7fafe"/>
	<path d="M 518.375 184 C 519 184 519.5313 183.7813 519.9844 183.3125 C 520.4219 182.8438 520.6563 182.2813 520.6563 181.6094 L 520.6563 178.3906 C 520.6563 177.75 520.4219 177.1875 519.9844 176.7188 C 519.5313 176.25 519 176 518.375 176 L 509.25 176 C 509.0313 176 508.8594 175.9375 508.7188 175.8125 C 508.5781 175.6875 508.5156 175.5469 508.5156 175.3594 L 508.5156 172.6563 C 508.5156 172.4844 508.5781 172.3281 508.7188 172.2031 C 508.8594 172.0781 509.0313 172 509.25 172 L 518.375 172 C 518.5625 172 518.7344 172.0625 518.8906 172.1875 C 519.0313 172.3125 519.1094 172.4688 519.1094 172.6406 L 519.1094 173.1094 L 520.6563 173.1094 L 520.6563 172.5156 C 520.6563 171.8281 520.4219 171.2344 519.9844 170.7344 C 519.5313 170.25 519 170 518.375 170 L 509.25 170 C 508.6094 170 508.0625 170.2344 507.625 170.7031 C 507.1875 171.1719 506.9688 171.7344 506.9688 172.3906 L 506.9688 175.6094 C 506.9688 176.2656 507.1875 176.8281 507.625 177.2969 C 508.0625 177.7656 508.6094 178 509.25 178 L 518.375 178 C 518.5625 178 518.7344 178.0625 518.8906 178.1875 C 519.0313 178.3125 519.1094 178.4688 519.1094 178.6406 L 519.1094 181.3438 C 519.1094 181.5313 519.0313 181.6875 518.8906 181.8125 C 518.7344 181.9375 518.5625 182 518.375 182 L 509.25 182 C 509.0313 182 508.8594 181.9375 508.7188 181.8125 C 508.5781 181.6875 508.5156 181.5313 508.5156 181.3438 L 508.5156 180.8594 L 506.9688 180.8594 L 506.9688 181.4531 C 506.9688 182.1719 507.1875 182.7656 507.625 183.2656 C 508.0625 183.7656 508.6094 184 509.25 184 L 518.375 184 L 518.375 184 Z" fill="#f7fafe"/>
</svg>