<?xml version="1.0" standalone="no"?>
<!-- Generator: Adobe Fireworks 10, Export SVG Extension by Aaron Beall (http://fireworks.abeall.com) . Version: 0.6.1  -->
<!DOCTYPE svg PUBLIC "-//W3C//DTD SVG 1.1//EN" "http://www.w3.org/Graphics/SVG/1.1/DTD/svg11.dtd">
<svg id="Untitled-Page%201" viewBox="0 0 606 516" style="background-color:#ffffff00" version="1.1"
	xmlns="http://www.w3.org/2000/svg" xmlns:xlink="http://www.w3.org/1999/xlink" xml:space="preserve"
	x="0px" y="0px" width="606px" height="516px"
>
	<defs>
		<linearGradient id="gradient1" x1="16.9044%" y1="0.5911%" x2="83.0961%" y2="134.0966%">
			<stop stop-color="#a7c8ff" stop-opacity="1" offset="23%"/>
			<stop stop-color="#d8e9ff" stop-opacity="1" offset="99%"/>
		</linearGradient>
		<linearGradient id="gradient2" x1="12.0642%" y1="-21.9789%" x2="87.9363%" y2="116.253%">
			<stop stop-color="#d8e9ff" stop-opacity="1" offset="1%"/>
			<stop stop-color="#a7c8ff" stop-opacity="1" offset="99%"/>
		</linearGradient>
		<linearGradient id="gradient3" x1="50%" y1="0%" x2="50%" y2="100%">
			<stop stop-color="#5936ff" stop-opacity="1" offset="0%"/>
			<stop stop-color="#6288f7" stop-opacity="1" offset="100%"/>
		</linearGradient>
		<linearGradient id="gradient4" x1="3.0928%" y1="2.6313%" x2="98.9691%" y2="96.0523%">
			<stop stop-color="#30bfe7" stop-opacity="1" offset="0%"/>
			<stop stop-color="#5be5f2" stop-opacity="1" offset="100%"/>
		</linearGradient>
		<linearGradient id="gradient5" x1="3.0927%" y1="2.6317%" x2="98.9691%" y2="96.0524%">
			<stop stop-color="#30bfe7" stop-opacity="1" offset="0%"/>
			<stop stop-color="#5be5f2" stop-opacity="1" offset="100%"/>
		</linearGradient>
		<linearGradient id="gradient6" x1="14.6482%" y1="14.6507%" x2="85.3592%" y2="85.3614%">
			<stop stop-color="#a7c8ff" stop-opacity="1" offset="1%"/>
			<stop stop-color="#d8e9ff" stop-opacity="1" offset="99%"/>
		</linearGradient>
		<linearGradient id="gradient7" x1="24.3713%" y1="-342.4011%" x2="75.6297%" y2="501.0148%">
			<stop stop-color="#a7c8ff" stop-opacity="1" offset="1%"/>
			<stop stop-color="#73abff" stop-opacity="1" offset="99%"/>
		</linearGradient>
		<linearGradient id="gradient8" x1="3.0928%" y1="2.6314%" x2="98.969%" y2="96.0524%">
			<stop stop-color="#30bfe7" stop-opacity="1" offset="0%"/>
			<stop stop-color="#5be5f2" stop-opacity="1" offset="100%"/>
		</linearGradient>
		<linearGradient id="gradient9" x1="10.3673%" y1="-11.4683%" x2="89.6331%" y2="111.4693%">
			<stop stop-color="#35c9e2" stop-opacity="0.498" offset="1%"/>
			<stop stop-color="#35e6bb" stop-opacity="1" offset="99%"/>
		</linearGradient>
	</defs>
	<g id="Layer%201">
		<g>
			<path id="493" d="M 138.2299 239.7686 C 214.5722 239.7686 276.4598 301.6055 276.4598 377.8845 C 276.4598 454.1636 214.5722 516 138.2299 516 C 61.8876 516 0 454.1636 0 377.8845 C 0 301.6055 61.8876 239.7686 138.2299 239.7686 Z" fill="#f1ebfd"/>
			<path id="373" d="M 501.2412 83.6563 C 501.2412 79.3528 500.8056 75.1514 499.979 71.0916 L 521.015 58.9573 L 501.3134 24.8652 L 480.3417 36.9614 C 473.994 31.2805 466.4813 26.8813 458.2048 24.1482 L 458.2048 0 L 418.8016 0 L 418.8016 24.1482 C 415.1213 25.3635 411.5906 26.9009 408.2476 28.7439 C 407.8486 28.9617 407.4603 29.1963 407.0667 29.4216 C 406.673 29.6497 406.2755 29.8687 405.8871 30.1045 C 402.6188 32.0759 399.5198 34.3623 396.6268 36.9395 L 375.6944 24.8652 L 355.9928 58.9573 L 376.9252 71.0317 C 376.1392 74.8225 375.7062 78.6475 375.6315 82.4595 C 375.6209 82.9209 375.6301 83.3835 375.6288 83.845 C 375.6301 84.2908 375.6209 84.7378 375.6315 85.1833 C 375.7062 88.9966 376.1379 92.8215 376.9252 96.6138 L 355.9928 108.688 L 375.6944 142.7813 L 396.6268 130.7073 C 403.1345 136.4998 410.7037 140.8022 418.8016 143.4539 L 418.8016 167.6465 L 458.2048 167.6465 L 458.2048 143.3777 C 462.1371 142.0642 465.9971 140.3408 469.7272 138.1882 C 473.5493 135.9849 477.0458 133.4351 480.2118 130.6101 L 501.3134 142.7813 L 521.015 108.688 L 499.9135 96.5166 C 500.7807 92.3652 501.2412 88.0645 501.2412 83.6563 ZM 464.3072 111.4014 C 464.1367 111.5586 463.9648 111.7131 463.7916 111.8679 C 463.1133 112.4814 462.4113 113.0623 461.6936 113.6206 C 461.3577 113.8816 461.0153 114.1367 460.6702 114.3862 C 460.0824 114.8123 459.4814 115.2185 458.8727 115.6089 C 458.386 115.9197 457.8926 116.22 457.3914 116.5083 C 456.8915 116.7981 456.3851 117.0747 455.8721 117.3406 C 455.2291 117.6724 454.5758 117.9883 453.9106 118.2844 C 453.5235 118.4575 453.1326 118.6255 452.7389 118.7864 C 451.8966 119.1274 451.0411 119.4446 450.1686 119.7263 C 449.9482 119.7986 449.7291 119.8694 449.5073 119.9375 C 446.0226 120.9915 442.3318 121.5693 438.5033 121.5693 C 417.5447 121.5693 400.555 104.5952 400.555 83.6563 C 400.555 78.5281 401.5863 73.6453 403.4324 69.1833 C 403.5203 68.9749 403.6094 68.7666 403.7 68.5593 C 404.0411 67.7754 404.419 67.011 404.8113 66.2561 C 405.0619 65.7788 405.3177 65.3044 405.5893 64.8379 C 405.8583 64.3687 406.1417 63.9109 406.4304 63.4548 C 406.8882 62.7378 407.3619 62.03 407.871 61.343 C 408.0048 61.1597 408.1413 60.9788 408.2791 60.7979 C 411.2233 56.9702 414.9402 53.6355 419.3841 51.073 C 437.535 40.603 460.745 46.8152 471.223 64.9492 C 473.1385 68.2632 474.4822 71.7458 475.3113 75.2878 C 475.3624 75.5122 475.4097 75.7375 475.457 75.9614 C 475.6498 76.8582 475.8033 77.7588 475.9279 78.6606 C 475.9857 79.0801 476.0355 79.4998 476.0789 79.9216 C 476.155 80.6453 476.2075 81.3701 476.2415 82.0947 C 476.2665 82.6692 476.2809 83.2446 476.2796 83.8198 C 476.2809 84.3994 476.2678 84.9775 476.2415 85.5557 C 476.2075 86.2764 476.155 86.9973 476.0789 87.7185 C 476.0355 88.1445 475.9857 88.5679 475.9279 88.9897 C 475.802 89.8879 475.6498 90.7847 475.4583 91.6772 C 475.411 91.9065 475.3624 92.1345 475.31 92.3613 C 474.4808 95.9019 473.1372 99.385 471.223 102.696 C 469.3101 106.0085 466.9628 108.9119 464.3072 111.4014 Z" fill="#ebebf2"/>
			<path id="372" d="M 594.8516 203.5452 C 594.8516 201.1187 594.6063 198.7502 594.1404 196.4626 L 606 189.6216 L 594.8923 170.4009 L 583.0707 177.2209 C 579.4915 174.0186 575.2562 171.5383 570.5906 169.9968 L 570.5906 156.384 L 548.3763 156.384 L 548.3763 169.9968 C 546.3021 170.6826 544.3116 171.5491 542.4262 172.5884 C 542.2019 172.7102 541.9828 172.843 541.761 172.9712 C 541.5393 173.0996 541.3149 173.2229 541.0958 173.3552 C 539.2537 174.4668 537.5074 175.7554 535.8752 177.2075 L 524.0746 170.4009 L 512.9683 189.6216 L 524.7688 196.4285 C 524.3253 198.5652 524.0813 200.7214 524.0393 202.8701 C 524.0327 203.1309 524.038 203.3918 524.038 203.6511 C 524.038 203.9028 524.0327 204.1545 524.0393 204.4063 C 524.0813 206.5564 524.3253 208.7124 524.7688 210.8506 L 512.9683 217.6577 L 524.0746 236.8767 L 535.8752 230.0701 C 539.5436 233.3364 543.8118 235.7615 548.3763 237.2561 L 548.3763 250.8953 L 570.5906 250.8953 L 570.5906 237.2139 C 572.8079 236.4734 574.9833 235.5005 577.0865 234.2881 C 579.2409 233.0457 581.2129 231.6089 582.9973 230.0161 L 594.8923 236.8767 L 606 217.6577 L 594.1037 210.7957 C 594.5917 208.4541 594.8516 206.0305 594.8516 203.5452 ZM 574.0308 219.186 C 573.9349 219.2751 573.8378 219.363 573.7408 219.4497 C 573.3577 219.7957 572.9615 220.1233 572.5574 220.438 C 572.3671 220.5847 572.1755 220.7288 571.98 220.8691 C 571.6481 221.1101 571.3109 221.3384 570.9672 221.5586 C 570.6929 221.7344 570.4147 221.9033 570.1314 222.0659 C 569.8493 222.2295 569.5646 222.3845 569.2759 222.5354 C 568.9125 222.7214 568.5451 222.8997 568.1699 223.0671 C 567.9507 223.1643 567.7316 223.2588 567.5099 223.3506 C 567.0336 223.542 566.5521 223.7214 566.0601 223.8801 C 565.9355 223.9207 565.8122 223.9614 565.6875 223.9993 C 563.722 224.5933 561.6425 224.9197 559.4841 224.9197 C 547.6678 224.9197 538.09 215.3491 538.09 203.5452 C 538.09 200.6548 538.6711 197.9019 539.7117 195.3862 C 539.7615 195.2686 539.8114 195.1519 539.8639 195.0352 C 540.0554 194.592 540.2692 194.1624 540.4897 193.7361 C 540.6313 193.4673 540.7744 193.2 540.9279 192.9365 C 541.0801 192.6719 541.2402 192.4136 541.4015 192.1567 C 541.6613 191.7527 541.9276 191.353 542.215 190.9663 C 542.2898 190.863 542.3672 190.7607 542.4446 190.6584 C 544.1044 188.5005 546.1997 186.6208 548.7057 185.1763 C 558.9383 179.2739 572.022 182.7764 577.9302 192.9995 C 579.0087 194.8674 579.767 196.8308 580.2341 198.8276 C 580.2629 198.9546 580.2905 199.0806 580.3168 199.2075 C 580.4256 199.7134 580.511 200.2207 580.5817 200.7283 C 580.6146 200.9656 580.6422 201.2026 580.6671 201.4402 C 580.7103 201.8477 580.7392 202.2566 580.759 202.6655 C 580.7734 202.989 580.7812 203.3132 580.7799 203.6382 C 580.7812 203.9648 580.7734 204.291 580.759 204.6162 C 580.7392 205.0225 580.7103 205.4287 580.6671 205.8352 C 580.6422 206.075 580.6146 206.3137 580.5817 206.5522 C 580.511 207.0581 580.4256 207.5642 580.3168 208.0676 C 580.2905 208.196 580.2629 208.3247 580.2328 208.4529 C 579.7656 210.4495 579.0087 212.4128 577.9302 214.2798 C 576.8503 216.1462 575.5278 217.7837 574.0308 219.186 Z" fill="#ebebf2"/>
			<path id="371" d="M 162.8219 335.2278 C 161.6017 332.0803 160.0922 329.1311 158.3367 326.3953 L 170.2809 311.5696 L 146.2089 292.2124 L 134.3014 306.9922 C 128.0489 304.634 121.3076 303.5435 114.481 303.8857 L 107.6354 286.2261 L 78.819 297.3745 L 85.6646 315.0342 C 83.318 316.9651 81.1715 319.0886 79.2494 321.3826 C 79.0191 321.6541 78.8013 321.9358 78.5776 322.2126 C 78.3552 322.4902 78.1256 322.7629 77.9091 323.0444 C 76.0775 325.4109 74.4597 327.9604 73.0742 330.6633 L 54.3428 327.7561 L 49.5998 358.2629 L 68.3305 361.1704 C 68.8298 364.1655 69.5973 367.0835 70.624 369.8928 C 70.7467 370.2336 70.8844 370.5691 71.015 370.9075 C 71.1422 371.2339 71.2616 371.5627 71.3961 371.8853 C 72.5317 374.6526 73.9316 377.3279 75.5822 379.8787 L 63.6964 394.6309 L 87.7691 413.9893 L 99.6549 399.2356 C 106.0557 401.6318 112.8108 402.636 119.4845 402.2832 L 126.3426 419.9756 L 155.1589 408.8259 L 148.2792 391.0798 C 150.7827 389.0059 153.1167 386.6531 155.2344 384.0237 C 157.4045 381.3298 159.2394 378.4773 160.7528 375.5149 L 179.6344 378.446 L 184.3782 347.9375 L 165.4966 345.0076 C 164.9533 341.7266 164.0717 338.4509 162.8219 335.2278 ZM 143.6766 365.9668 C 143.5972 366.1306 143.5153 366.293 143.4326 366.4546 C 143.1098 367.0955 142.7608 367.7195 142.3954 368.3301 C 142.2229 368.6162 142.0451 368.8989 141.8627 369.1794 C 141.5537 369.6582 141.2303 370.1248 140.8957 370.5825 C 140.6274 370.9478 140.3519 371.3071 140.0672 371.6597 C 139.7831 372.0125 139.4912 372.3584 139.192 372.6978 C 138.8155 373.1226 138.4278 373.5381 138.0256 373.9419 C 137.7908 374.179 137.5526 374.4124 137.3112 374.6404 C 136.791 375.1294 136.2557 375.604 135.6974 376.0562 C 135.557 376.1716 135.416 376.2856 135.2736 376.3982 C 133.0241 378.1548 130.4886 379.6216 127.6893 380.7058 C 112.3621 386.6362 95.1251 379.0293 89.1901 363.7158 C 87.7363 359.9656 87.1059 356.1028 87.1918 352.3184 C 87.1971 352.1399 87.2023 351.9631 87.2108 351.7861 C 87.2378 351.1165 87.2974 350.4504 87.3702 349.7871 C 87.4182 349.3674 87.4706 348.9482 87.5369 348.5298 C 87.6005 348.1106 87.6779 347.6951 87.7599 347.2805 C 87.8918 346.6267 88.0374 345.9751 88.2146 345.3291 C 88.2612 345.1558 88.3097 344.9856 88.3589 344.8137 C 89.4262 341.1816 91.2001 337.6919 93.7232 334.5593 C 104.0293 321.7678 122.7633 319.7441 135.5669 330.0408 C 137.9062 331.9219 139.877 334.0886 141.4868 336.4441 C 141.5879 336.5935 141.6869 336.7444 141.7853 336.895 C 142.1802 337.4966 142.5469 338.1113 142.8946 338.7354 C 143.0554 339.0264 143.2108 339.3188 143.3617 339.615 C 143.6228 340.1235 143.8669 340.6389 144.0971 341.1592 C 144.2788 341.572 144.452 341.9888 144.6147 342.4097 C 144.7794 342.8333 144.9329 343.2605 145.0779 343.6904 C 145.2576 344.2266 145.4236 344.7693 145.5725 345.3171 C 145.6617 345.6409 145.7444 345.9648 145.8224 346.2913 C 145.9852 346.9819 146.1281 347.6804 146.241 348.3884 C 146.2705 348.5693 146.3 348.7505 146.3263 348.9312 C 146.7238 351.7546 146.7278 354.6819 146.2672 357.644 C 145.8061 360.6082 144.9132 363.3962 143.6766 365.9668 Z" fill="#ebebf2"/>
			<path id="370" d="M 520.1937 422.0417 C 520.1937 432.7891 427.8284 441.5007 313.8906 441.5007 C 199.9528 441.5007 107.5876 432.7891 107.5876 422.0417 C 107.5876 411.2954 199.9528 402.5835 313.8906 402.5835 C 427.8284 402.5835 520.1937 411.2954 520.1937 422.0417 Z" fill="#ebebf2"/>
			<path id="369" d="M 373.6739 423.0732 L 254.1074 423.0732 L 274.6691 363.8472 L 353.1128 363.8472 L 373.6739 423.0732 Z" fill="url(#gradient1)"/>
			<path id="368" d="M 484.905 393.759 L 142.8763 393.759 C 131.5212 393.759 122.3159 384.5623 122.3159 373.217 L 122.3159 183.6519 L 505.4647 183.6519 L 505.4647 373.217 C 505.4647 384.5623 496.2595 393.759 484.905 393.759 Z" fill="url(#gradient2)"/>
			<path id="367" d="M 505.4647 345.1387 L 122.3159 345.1387 L 122.3159 145.3022 C 122.3159 133.9568 131.5212 124.76 142.8763 124.76 L 484.905 124.76 C 496.2595 124.76 505.4647 133.9568 505.4647 145.3022 L 505.4647 345.1387 Z" fill="#3d3d89"/>
			<path id="366" d="M 490.7292 323.9885 L 137.7226 323.9885 L 137.7226 145.5078 L 490.7292 145.5078 L 490.7292 323.9885 Z" fill="url(#gradient3)"/>
			<path id="365" opacity="0.3098" d="M 397.0398 274.0215 L 182.4207 274.0215 C 175.7263 274.0215 170.2993 268.6091 170.2993 261.9324 L 170.2993 132.5237 C 170.2993 125.8481 175.7263 120.437 182.4207 120.437 L 397.0398 120.437 C 403.7333 120.437 409.1606 125.8481 409.1606 132.5237 L 409.1606 261.9324 C 409.1606 268.6091 403.7333 274.0215 397.0398 274.0215 Z" fill="#3d3d89"/>
			<path id="364" opacity="0.2" d="M 133.119 278.675 L 64.9879 278.675 C 58.3929 278.675 53.0463 273.3333 53.0463 266.7437 L 53.0463 198.6758 C 53.0463 192.0864 58.3929 186.7449 64.9879 186.7449 L 133.119 186.7449 C 139.714 186.7449 145.0605 192.0864 145.0605 198.6758 L 145.0605 266.7437 C 145.0605 273.3333 139.714 278.675 133.119 278.675 Z" fill="#000000"/>
			<path id="363" d="M 145.2832 257.6814 L 77.1521 257.6814 C 70.5571 257.6814 65.2105 252.3398 65.2105 245.75 L 65.2105 177.6821 C 65.2105 171.0928 70.5571 165.7512 77.1521 165.7512 L 145.2832 165.7512 C 151.8782 165.7512 157.2248 171.0928 157.2248 177.6821 L 157.2248 245.75 C 157.2248 252.3398 151.8782 257.6814 145.2832 257.6814 Z" fill="url(#gradient4)"/>
			<g id="362" opacity="0.2">
				<g id="Smart%20Resize%2019048022503088835">
					<path d="M 137.6458 290.7722 L 137.6458 370.7698 L 235.1125 370.7698 L 235.1125 290.7722 L 137.6458 290.7722 ZM 137.6458 290.7722 L 137.6458 370.7698 L 235.1125 370.7698 L 235.1125 290.7722 L 137.6458 290.7722 Z" fill="#000000"/>
				</g>
				<path d="M 223.6029 371.2546 L 149.065 371.2546 C 142.47 371.2546 137.1241 365.9143 137.1241 359.3247 L 137.1241 302.5249 C 137.1241 295.9368 142.47 290.5952 149.065 290.5952 L 223.6029 290.5952 C 230.1979 290.5952 235.5438 295.9368 235.5438 302.5249 L 235.5438 359.3247 C 235.5438 365.9143 230.1979 371.2546 223.6029 371.2546 Z" fill="#000000"/>
			</g>
			<g id="361">
				<g id="Smart%20Resize%20190480225030888352">
					<path d="M 147.5983 278.6179 L 147.5983 358.6157 L 245.0651 358.6157 L 245.0651 278.6179 L 147.5983 278.6179 ZM 147.5983 278.6179 L 147.5983 358.6157 L 245.0651 358.6157 L 245.0651 278.6179 L 147.5983 278.6179 Z" fill="#47a0ff"/>
				</g>
				<path d="M 233.5555 359.1006 L 159.0175 359.1006 C 152.4225 359.1006 147.0766 353.7603 147.0766 347.1707 L 147.0766 290.3708 C 147.0766 283.7825 152.4225 278.4412 159.0175 278.4412 L 233.5555 278.4412 C 240.1505 278.4412 245.4963 283.7825 245.4963 290.3708 L 245.4963 347.1707 C 245.4963 353.7603 240.1505 359.1006 233.5555 359.1006 Z" fill="#47a0ff"/>
			</g>
			<path id="360" opacity="0.2" d="M 544.8764 207.3784 L 440.9193 207.3784 C 434.3237 207.3784 428.9784 202.0371 428.9784 195.4487 L 428.9784 91.5874 C 428.9784 84.9976 434.3237 79.656 440.9193 79.656 L 544.8764 79.656 C 551.4721 79.656 556.8174 84.9976 556.8174 91.5874 L 556.8174 195.4487 C 556.8174 202.0371 551.4721 207.3784 544.8764 207.3784 Z" fill="#000000"/>
			<path id="359" opacity="0.2" d="M 128.6956 165.8081 L 60.5645 165.8081 C 53.9695 165.8081 48.6229 160.4663 48.6229 153.8782 L 48.6229 85.8091 C 48.6229 79.2195 53.9695 73.8792 60.5645 73.8792 L 128.6956 73.8792 C 135.2906 73.8792 140.6372 79.2195 140.6372 85.8091 L 140.6372 153.8782 C 140.6372 160.4663 135.2906 165.8081 128.6956 165.8081 Z" fill="#000000"/>
			<path id="358" d="M 561.464 186.385 L 457.5068 186.385 C 450.9112 186.385 445.5659 181.0435 445.5659 174.4551 L 445.5659 70.594 C 445.5659 64.0042 450.9112 58.6624 457.5068 58.6624 L 561.464 58.6624 C 568.0596 58.6624 573.4049 64.0042 573.4049 70.594 L 573.4049 174.4551 C 573.4049 181.0435 568.0596 186.385 561.464 186.385 Z" fill="url(#gradient5)"/>
			<path id="357" d="M 145.2832 144.8145 L 77.1521 144.8145 C 70.5571 144.8145 65.2105 139.4727 65.2105 132.8845 L 65.2105 64.8157 C 65.2105 58.2261 70.5571 52.8857 77.1521 52.8857 L 145.2832 52.8857 C 151.8782 52.8857 157.2248 58.2261 157.2248 64.8157 L 157.2248 132.8845 C 157.2248 139.4727 151.8782 144.8145 145.2832 144.8145 Z" fill="#47a0ff"/>
			<path id="356" d="M 325.0443 366.9292 C 325.0443 373.0833 320.0507 378.0723 313.8906 378.0723 C 307.7306 378.0723 302.7369 373.0833 302.7369 366.9292 C 302.7369 360.7744 307.7306 355.7856 313.8906 355.7856 C 320.0507 355.7856 325.0443 360.7744 325.0443 366.9292 Z" fill="url(#gradient6)"/>
			<path id="355" d="M 404.8218 423.0732 L 222.9595 423.0732 L 222.9595 423.0732 C 222.9595 416.9751 227.9078 412.0308 234.0121 412.0308 L 393.7692 412.0308 C 399.8727 412.0308 404.8218 416.9751 404.8218 423.0732 L 404.8218 423.0732 Z" fill="url(#gradient7)"/>
			<path id="354" d="M 569.5895 454.3367 C 569.5895 460.9316 532.1622 466.2783 485.9913 466.2783 C 439.8205 466.2783 402.3932 460.9316 402.3932 454.3367 C 402.3932 447.7417 439.8205 442.3962 485.9913 442.3962 C 532.1622 442.3962 569.5895 447.7417 569.5895 454.3367 Z" fill="#ebebf2"/>
			<path id="353" d="M 527.818 449.7185 L 444.1647 449.7185 C 437.5704 449.7185 432.2238 444.3772 432.2238 437.7874 L 432.2238 277.2573 C 432.2238 270.6677 437.5704 265.3262 444.1647 265.3262 L 527.818 265.3262 C 534.4123 265.3262 539.7589 270.6677 539.7589 277.2573 L 539.7589 437.7874 C 539.7589 444.3772 534.4123 449.7185 527.818 449.7185 Z" fill="#4b4ba0"/>
			<path id="352" d="M 539.7589 436.1357 L 432.2238 436.1357 L 432.2238 278.1685 L 539.7589 278.1685 L 539.7589 436.1357 Z" fill="url(#gradient8)"/>
			<path id="351" d="M 499.4699 284.4275 L 472.5127 284.4275 C 468.3575 284.4275 464.9881 281.0627 464.9881 276.9114 L 464.9881 276.9114 L 506.9945 276.9114 L 506.9945 276.9114 C 506.9945 281.0627 503.6252 284.4275 499.4699 284.4275 Z" fill="#4b4ba0"/>
			<path id="350" opacity="0.149" d="M 495.7162 278.1685 L 476.2665 278.1685 C 475.5737 278.1685 475.0134 277.6086 475.0134 276.9165 L 475.0134 276.9165 C 475.0134 276.2258 475.5737 275.6646 476.2665 275.6646 L 495.7162 275.6646 C 496.409 275.6646 496.9692 276.2258 496.9692 276.9165 L 496.9692 276.9165 C 496.9692 277.6086 496.409 278.1685 495.7162 278.1685 Z" fill="#ffffff"/>
			<path id="349" d="M 407.0325 257.6814 L 195.5968 257.6814 C 189.0018 257.6814 183.6552 252.3398 183.6552 245.75 L 183.6552 118.0261 C 183.6552 111.438 189.0018 106.0962 195.5968 106.0962 L 407.0325 106.0962 C 413.6268 106.0962 418.9734 111.438 418.9734 118.0261 L 418.9734 245.75 C 418.9734 252.3398 413.6268 257.6814 407.0325 257.6814 Z" fill="url(#gradient9)"/>
			<path id="348" d="M 407.0313 245.75 L 195.5974 245.75 L 195.5974 118.0276 L 407.0313 118.0276 L 407.0313 245.75 Z" fill="#3d3d89"/>
			<path id="347" d="M 240.1321 138.0637 L 218.1384 138.0637 L 218.1384 135.0918 L 240.1321 135.0918 L 240.1321 138.0637 Z" fill="#ffc700"/>
			<path id="346" d="M 292.1054 138.0637 L 247.0965 138.0637 L 247.0965 135.0918 L 292.1054 135.0918 L 292.1054 138.0637 Z" fill="#ffc700"/>
			<path id="345" d="M 249.4686 150.0908 L 227.4755 150.0908 L 227.4755 147.1191 L 249.4686 147.1191 L 249.4686 150.0908 Z" fill="#ffffff"/>
			<path id="344" d="M 385.0362 150.0908 L 256.433 150.0908 L 256.433 147.1191 L 385.0362 147.1191 L 385.0362 150.0908 Z" fill="#1e9aff"/>
			<path id="343" d="M 249.4686 161.2549 L 227.4755 161.2549 L 227.4755 158.2832 L 249.4686 158.2832 L 249.4686 161.2549 Z" fill="#ffffff"/>
			<path id="342" d="M 385.0362 161.2549 L 256.433 161.2549 L 256.433 158.2832 L 385.0362 158.2832 L 385.0362 161.2549 Z" fill="#1e9aff"/>
			<path id="341" d="M 249.4686 172.418 L 227.4755 172.418 L 227.4755 169.4463 L 249.4686 169.4463 L 249.4686 172.418 Z" fill="#ffffff"/>
			<path id="340" d="M 385.0362 172.418 L 256.433 172.418 L 256.433 169.4463 L 385.0362 169.4463 L 385.0362 172.418 Z" fill="#1e9aff"/>
			<path id="339" d="M 249.4686 183.5811 L 227.4755 183.5811 L 227.4755 180.6096 L 249.4686 180.6096 L 249.4686 183.5811 Z" fill="#ffffff"/>
			<path id="338" d="M 240.1321 195.3933 L 218.1384 195.3933 L 218.1384 192.4214 L 240.1321 192.4214 L 240.1321 195.3933 Z" fill="#ffc700"/>
			<path id="337" d="M 292.1054 195.3933 L 247.0965 195.3933 L 247.0965 192.4214 L 292.1054 192.4214 L 292.1054 195.3933 Z" fill="#ffc700"/>
			<path id="336" d="M 339.3626 207.4214 L 256.433 207.4214 L 256.433 204.4497 L 339.3626 204.4497 L 339.3626 207.4214 Z" fill="#ffffff"/>
			<path id="335" d="M 339.3626 218.5845 L 256.433 218.5845 L 256.433 215.6128 L 339.3626 215.6128 L 339.3626 218.5845 Z" fill="#ffffff"/>
			<path id="334" d="M 249.4686 218.5845 L 242.1685 218.5845 L 242.1685 215.6128 L 249.4686 215.6128 L 249.4686 218.5845 Z" fill="#1e9aff"/>
			<path id="333" d="M 249.4686 229.7485 L 227.4755 229.7485 L 227.4755 226.7769 L 249.4686 226.7769 L 249.4686 229.7485 Z" fill="#1e9aff"/>
			<path id="332" d="M 339.3626 229.7485 L 256.433 229.7485 L 256.433 226.7769 L 339.3626 226.7769 L 339.3626 229.7485 Z" fill="#ffffff"/>
			<path id="331" d="M 385.9677 207.4214 L 345.3271 207.4214 L 345.3271 204.4497 L 385.9677 204.4497 L 385.9677 207.4214 Z" fill="#ffffff"/>
			<path id="330" d="M 385.9677 218.5845 L 345.3271 218.5845 L 345.3271 215.6128 L 385.9677 215.6128 L 385.9677 218.5845 Z" fill="#ffffff"/>
			<path id="329" d="M 385.9677 229.7485 L 345.3271 229.7485 L 345.3271 226.7769 L 385.9677 226.7769 L 385.9677 229.7485 Z" fill="#ffffff"/>
			<path id="328" d="M 509.8218 399.6785 L 469.1812 399.6785 L 469.1812 396.7065 L 509.8218 396.7065 L 509.8218 399.6785 Z" fill="#ffffff"/>
			<path id="327" d="M 509.8218 410.8416 L 469.1812 410.8416 L 469.1812 407.8696 L 509.8218 407.8696 L 509.8218 410.8416 Z" fill="#ffffff"/>
			<path id="326" d="M 509.8218 422.0056 L 469.1812 422.0056 L 469.1812 419.0339 L 509.8218 419.0339 L 509.8218 422.0056 Z" fill="#ffffff"/>
			<path id="325" d="M 385.0362 183.5811 L 256.433 183.5811 L 256.433 180.6096 L 385.0362 180.6096 L 385.0362 183.5811 Z" fill="#1e9aff"/>
			<path id="324" d="M 493.1183 92.8137 L 495.9653 92.8137 C 496.4658 92.8647 496.9636 92.929 497.4641 92.991 C 497.4587 95.8796 497.4722 98.7661 497.4587 101.655 C 493.3902 101.094 489.1413 101.666 485.4601 103.5208 C 481.4454 105.4863 478.1329 108.8262 476.2035 112.8511 C 473.8893 117.5867 473.5933 123.2493 475.3585 128.2136 C 476.8413 132.418 479.769 136.0967 483.5442 138.4861 C 487.6236 141.1279 492.6636 142.113 497.4614 141.4285 C 497.4695 144.3174 497.4587 147.2039 497.4669 150.0898 C 496.9824 150.1489 496.5009 150.2163 496.0164 150.2698 L 493.1318 150.2698 C 485.8638 149.9558 478.7571 146.8171 473.7117 141.5791 C 468.8735 136.6978 466.0023 130.0313 465.5583 123.1985 L 465.5583 120.116 C 465.9271 113.1328 468.8843 106.3103 473.8516 101.3623 C 478.8862 96.21 485.923 93.1306 493.1183 92.8137 Z" fill="#ffffff"/>
			<path id="323" d="M 542.1084 92.8137 L 546.2847 92.8137 L 546.2847 101.6335 C 541.0913 100.9138 535.6369 102.2268 531.431 105.3708 C 527.5238 108.2061 524.7953 112.4912 523.6678 117.1599 C 529.2783 117.3025 534.8996 117.1763 540.5127 117.2244 C 540.5209 120.1028 540.5209 122.981 540.5127 125.8594 C 534.9049 125.8726 529.2971 125.8538 523.6921 125.8696 C 524.7497 130.6409 527.61 134.9771 531.5871 137.8281 C 535.7715 140.8916 541.1558 142.156 546.2847 141.4502 L 546.2847 150.2698 L 542.1165 150.2698 C 540.171 150.114 538.22 149.9126 536.3285 149.4133 C 529.8677 147.8103 524.0338 143.8694 520.1133 138.5073 C 516.4617 133.5591 514.465 127.4109 514.5755 121.2625 C 514.5726 113.6995 517.8045 106.2192 523.2562 100.9731 C 528.2504 96.0515 535.1068 93.1357 542.1084 92.8137 Z" fill="#ffffff"/>
			<path id="322" d="M 92.4139 82.5442 C 90.0214 83.3945 88.3959 85.8679 88.5023 88.4028 C 88.4643 97.8125 88.4415 107.2222 88.5176 116.6318 C 88.4339 119.8267 91.3126 122.6802 94.5102 122.5813 C 105.9184 122.6953 117.3266 122.5586 128.7348 122.6418 C 131.0133 122.6646 133.6413 122.6802 135.2972 120.8357 C 137.5377 118.7795 137.044 115.5015 137.1122 112.7769 C 136.968 108.4744 137.3099 104.1643 136.9605 99.8765 C 136.8085 97.8352 133.2541 97.8433 133.1703 99.9146 C 132.7223 105.606 133.3528 111.3352 132.9122 117.019 C 132.7223 118.6809 130.7475 118.5593 129.5095 118.5823 C 118.6253 118.5745 107.7412 118.5442 96.8572 118.5977 C 95.7711 118.5671 94.6697 118.605 93.6064 118.3545 C 92.3684 117.7322 92.6038 116.2451 92.5203 115.1143 C 92.5279 106.7363 92.5431 98.3665 92.5127 89.9961 C 92.6114 88.7368 92.262 86.7939 93.8647 86.3467 C 96.356 85.9895 98.8927 86.3916 101.3842 86.0425 C 103.0549 85.4661 103.108 82.8176 101.3612 82.3091 C 98.3991 82.021 95.3306 81.8689 92.4139 82.5442 ZM 121.0408 74.7966 C 120.7371 77.2021 120.8965 79.6306 120.8965 82.0435 C 115.8758 82.1953 110.8023 83.8118 107.1033 87.3103 C 101.9612 91.8479 99.7587 99.1252 100.8524 105.8108 C 102.7282 107.6699 103.9817 104.5813 104.9538 103.3142 C 108.349 98.0784 114.8507 95.8625 120.8813 96.2566 C 120.9117 98.6851 120.7141 101.144 121.056 103.5645 C 121.5266 104.5208 122.9319 104.7788 123.5397 103.7998 C 127.6563 99.8162 131.4918 95.5359 135.5401 91.4839 C 136.2771 90.573 137.8796 89.3435 136.5808 88.1902 C 132.3199 83.5916 127.9753 79.0461 123.5167 74.6448 C 122.8558 73.6128 121.7165 74.0303 121.0408 74.7966 Z" fill="#ffffff"/>
			<path id="321" d="M 475.3284 205.9363 L 434.6879 205.9363 L 434.6879 202.9644 L 475.3284 202.9644 L 475.3284 205.9363 Z" fill="#a7c8ff"/>
			<path id="320" d="M 475.3284 217.0994 L 434.6879 217.0994 L 434.6879 214.1274 L 475.3284 214.1274 L 475.3284 217.0994 Z" fill="#a7c8ff"/>
			<path id="319" d="M 475.3284 228.2622 L 434.6879 228.2622 L 434.6879 225.2905 L 475.3284 225.2905 L 475.3284 228.2622 Z" fill="#a7c8ff"/>
			<path id="153" d="M 174.8774 291.0994 C 178.301 290.2939 181.9453 290.6558 185.4422 290.8188 C 187.6508 290.8818 187.7244 293.4702 188.2308 295.0354 C 198.0591 295.0354 207.8879 295.0623 217.7166 295.0532 C 219.1334 295.1433 221.0018 294.9082 221.8942 296.3108 C 222.6307 297.8396 222.3544 299.6221 222.566 301.2781 C 206.1943 301.2964 189.8135 301.2781 173.4417 301.2781 C 173.9019 297.9939 172.144 293.5964 174.8774 291.0994 Z" fill="#ffffff"/>
			<path id="152" d="M 170.3129 305.9194 C 170.0922 303.7205 172.6041 302.7979 174.4541 303.0063 C 189.8045 302.97 205.1545 303.0332 220.5138 302.979 C 221.8668 303.1057 223.4957 302.8074 224.6367 303.7664 C 226.3118 305.259 225.29 307.6387 225.2073 309.5298 C 224.0848 316.1431 223.4036 322.8208 222.1522 329.4075 C 221.7932 332.321 218.5353 332.8186 216.1519 333.1257 C 216.7869 328.4395 216.7226 323.4089 214.1639 319.2378 C 210.6392 312.8865 203.038 309.0498 195.7311 310.0183 C 188.433 310.7874 181.9543 316.2339 180.04 323.2009 C 179.0186 326.4216 179.4235 329.8237 179.7363 333.1257 C 177.7762 332.6829 175.1902 332.719 174.1688 330.665 C 173.0184 327.4712 172.9447 324.0151 172.3561 320.6943 C 171.7391 315.7634 170.6624 310.8774 170.3129 305.9194 Z" fill="#ffffff"/>
			<path id="151" d="M 194.2217 311.9905 C 199.329 310.8506 204.9338 312.1714 208.9003 315.5647 C 213.4185 319.3013 215.6639 325.4807 214.5136 331.1899 C 213.5385 336.6455 209.5441 341.4316 204.3357 343.5127 C 198.8046 345.7837 192.0868 344.8428 187.4391 341.1152 C 182.3223 337.2246 179.9115 330.2671 181.5863 324.1143 C 183.0309 318.1521 188.1478 313.3027 194.2217 311.9905 ZM 197.599 319.5996 C 196.9366 321.5718 197.0467 323.9424 194.9303 325.0828 C 193.2003 324.585 191.2676 323.4631 189.5097 324.4949 C 186.7583 325.7336 186.3624 329.8958 188.8564 331.5967 C 190.5774 333.1169 192.8138 332.0767 194.7002 331.5334 C 195.3998 331.9861 196.108 332.4382 196.8167 332.8997 C 196.9735 335.1978 197.3689 338.1655 200.1666 338.6814 C 203.7924 339.8303 207.0597 335.2341 204.8048 332.2756 C 203.2955 329.7512 200.0745 330.3213 197.8569 331.4524 C 197.1299 331.0181 196.4118 330.5837 195.7031 330.1497 C 195.6663 328.9641 195.6205 327.7788 195.5931 326.5935 C 196.3013 326.0691 197.0193 325.5439 197.7464 325.0286 C 199.1452 325.3901 200.5531 325.8787 202.0256 325.897 C 204.897 325.4353 206.5074 321.8616 204.8691 319.4912 C 203.3876 316.8672 198.9241 316.8491 197.599 319.5996 Z" fill="#ffffff"/>
			<path id="142" d="M 98.14 191.6672 L 98.14 239.7686 L 130.8634 239.7686 C 131.9291 239.7686 133.9127 239.7058 133.7117 238.072 C 133.9127 222.6128 133.7207 207.1353 133.7906 191.6672 L 98.14 191.6672 ZM 116 194.0193 C 120.5179 193.6873 124.9303 196.9998 125.9615 201.5244 C 126.1535 202.7993 126.7039 204.5049 125.4722 205.4116 C 122.3525 205.8247 119.1632 205.8335 116.044 205.4658 L 115.1002 204.6667 C 114.7508 201.4526 114.7508 198.176 115.1087 194.9622 C 115.3272 194.7197 115.7816 194.2527 116 194.0193 ZM 103.0246 205.0078 C 104.5013 201.0488 109.3681 197.4844 113.4226 199.3611 C 113.7895 201.8745 113.6585 204.4155 113.6671 206.9377 C 116.2184 206.9377 118.8048 206.7673 121.3302 207.2971 C 122.8593 213.4736 116.6554 219.5605 110.7138 218.4741 C 104.7022 217.8726 100.5778 210.6997 103.0246 205.0078 ZM 101.2595 222.8281 C 104.0379 221.9932 106.9916 222.4871 109.8485 222.3792 C 115.3622 222.541 120.9108 222.0833 126.4159 222.5857 C 128.0321 223.3398 127.3593 225.97 125.5767 225.7549 C 118.0275 225.8987 110.4603 225.8716 102.9107 225.7729 C 101.207 226.033 100.237 224.1929 101.2595 222.8281 ZM 101.3816 229.3459 C 104.4138 228.6096 107.5681 229.0586 110.6438 228.9688 C 115.8865 229.1035 121.1467 228.6814 126.372 229.1482 C 128.0496 229.9294 127.3418 232.6138 125.4982 232.3171 C 117.9575 232.4968 110.3993 232.4341 102.8582 232.3442 C 101.2245 232.6406 100.0623 230.531 101.3816 229.3459 ZM 118.3244 197.4041 C 118.2895 199.0198 118.2719 200.6267 118.2459 202.2424 C 119.8101 202.207 121.3741 202.1531 122.9293 202.0991 C 121.8021 200.1511 120.2205 198.562 118.3244 197.4041 ZM 105.8119 207.4946 C 104.7897 211.804 109.1061 216.1311 113.2741 214.9641 C 115.6945 214.6226 117.0402 212.3516 118.3769 210.52 C 115.834 210.3855 113.2652 210.5291 110.7573 210.0173 C 110.0324 207.4497 110.3553 204.7295 110.1984 202.0991 C 108.3544 203.4727 106.1003 204.9358 105.8119 207.4946 ZM 89.0787 182.3125 C 88.6419 184.3774 88.4759 186.4873 88.4672 188.5969 C 88.5371 201.7668 88.5284 214.937 88.4759 228.116 C 88.4934 229.9116 88.5371 231.7158 88.8428 233.4934 C 90.8088 233.8347 92.8011 233.8884 94.7759 234.0144 L 94.7846 199.3699 C 94.8109 195.7969 94.5487 192.1877 95.1341 188.6418 C 97.0913 188.175 99.1186 188.1838 101.1196 188.166 C 109.9709 188.2561 118.8138 188.2021 127.6567 188.2107 C 127.4557 186.2446 127.2547 184.2786 127.0098 182.3125 L 89.0787 182.3125 Z" fill="#ffffff"/>
			<path id="138" d="M 454.5079 374.5698 C 454.5079 356.3694 454.4835 338.1694 454.5204 319.9692 C 477.3718 319.9814 500.2107 319.9214 523.0621 320.0056 C 523.0376 338.1934 523.0621 356.3818 523.0501 374.5698 L 454.5079 374.5698 ZM 469.3643 328.5381 C 467.5486 332.5938 464.8672 336.3347 463.7948 340.6921 C 463.3563 348.8628 463.8192 357.0693 463.6122 365.2517 C 465.1356 365.3245 466.6591 365.3726 468.2068 365.397 C 468.243 358.3848 468.158 351.3726 468.1824 344.3611 C 468.036 339.1228 471.5947 334.8628 473.618 330.2761 C 472.1797 329.7209 470.7663 329.1418 469.3643 328.5381 ZM 503.9889 330.4331 C 505.7927 334.2349 508.3032 337.8074 509.2292 341.9592 C 509.5826 349.7556 509.2173 357.5762 509.3512 365.397 C 510.8746 365.3726 512.4106 365.3245 513.9459 365.2644 C 513.7387 357.0815 514.2142 348.8745 513.7632 340.7039 C 512.7028 336.2622 509.9487 332.4487 507.9861 328.3816 C 506.646 329.0574 505.3171 329.7451 503.9889 330.4331 ZM 486.5123 329.1541 C 486.4998 330.2158 486.488 332.3523 486.4754 333.4143 C 480.8691 333.8484 475.7139 336.3103 471.7411 340.2332 C 472.777 341.3315 473.8006 342.4299 474.861 343.552 C 478.0299 340.4749 481.9784 338.3625 486.451 337.916 C 486.4635 339.4243 486.488 340.9456 486.5242 342.4661 C 480.8453 342.8528 475.6895 345.3745 471.7167 349.3457 C 472.7646 350.4197 473.8251 351.5059 474.8975 352.5923 C 478.0418 349.5022 482.0027 347.4744 486.4147 346.9436 C 486.4391 348.4519 486.4754 349.9849 486.5123 351.5176 C 480.8453 351.9402 475.6288 354.4023 471.7048 358.4697 C 472.777 359.4951 473.8613 360.5337 474.9587 361.5835 C 478.1031 358.5056 482.0271 356.406 486.488 356.1045 C 486.4998 359.1816 486.488 362.259 486.488 365.3486 C 487.6209 365.3486 489.8883 365.3611 491.0213 365.3611 C 491.0826 362.1987 491.0582 359.0488 491.2046 355.8987 C 495.5671 356.5627 499.5037 358.5781 502.6606 361.6196 C 503.7086 360.5576 504.769 359.5076 505.8295 358.4697 C 501.9167 354.3657 496.6645 351.9517 490.9969 351.4331 C 491.0457 349.9248 491.107 348.428 491.1677 346.9436 C 495.5671 347.4983 499.5281 349.5144 502.6606 352.6038 C 503.7205 351.4934 504.769 350.4075 505.8295 349.3333 C 501.8441 345.3625 496.7009 342.8528 491.0338 342.4661 C 491.0457 340.9331 491.0826 339.4243 491.1189 337.916 C 495.5428 338.3743 499.5037 340.4629 502.6606 343.5278 C 503.7086 342.4541 504.769 341.4041 505.8295 340.354 C 501.9167 336.2988 496.7253 333.825 491.0701 333.4143 C 491.0701 332.3523 491.0582 330.2158 491.0582 329.1541 C 489.9127 329.1541 487.6453 329.1541 486.5123 329.1541 Z" fill="#ffffff"/>
			<g id="106">
				<path d="M 292.6943 55.8608 C 292.6943 49.5237 287.5528 44.386 281.2104 44.386 C 280.0635 44.386 278.9578 44.5588 277.9123 44.8713 C 278.0798 43.7212 278.1705 42.5457 278.1705 41.3484 C 278.1705 27.928 267.2816 17.0488 253.8506 17.0488 C 252.3193 17.0488 250.8231 17.197 249.3706 17.4673 C 245.6324 11.3552 238.9131 7.2615 231.2198 7.2615 C 219.5745 7.2615 210.1289 16.6101 209.9556 28.2041 C 209.8369 28.2021 209.7207 28.1863 209.6019 28.1863 C 198.7822 28.1863 190.011 36.9502 190.011 47.761 C 190.011 58.5718 198.7822 67.3357 209.6019 67.3357 L 281.5479 67.3357 L 281.5333 67.3196 C 287.7245 67.1467 292.6943 62.0894 292.6943 55.8608 Z" fill="#efefef"/>
				<path d="M 232.2219 56.752 L 232.2219 79.1221 L 250.4835 79.1221 L 250.4835 56.752 L 265.3528 56.752 L 241.3527 36.4885 L 217.352 56.752 L 232.2219 56.752 Z" fill="#e0e0e0"/>
			</g>
		</g>
	</g>
</svg>