<?xml version="1.0" standalone="no"?>
<!-- Generator: Adobe Fireworks 10, Export SVG Extension by Aaron Beall (http://fireworks.abeall.com) . Version: 0.6.1  -->
<!DOCTYPE svg PUBLIC "-//W3C//DTD SVG 1.1//EN" "http://www.w3.org/Graphics/SVG/1.1/DTD/svg11.dtd">
<svg id="Untitled-Page%201" viewBox="0 0 506 400" style="background-color:#ffffff00" version="1.1"
	xmlns="http://www.w3.org/2000/svg" xmlns:xlink="http://www.w3.org/1999/xlink" xml:space="preserve"
	x="0px" y="0px" width="506px" height="400px"
>
	<defs>
		<linearGradient id="gradient1" x1="22.4855%" y1="-16.6655%" x2="86.6881%" y2="93.3317%">
			<stop stop-color="#38bfdd" stop-opacity="1" offset="0%"/>
			<stop stop-color="#0092b7" stop-opacity="1" offset="100%"/>
		</linearGradient>
		<linearGradient id="gradient2" x1="22.4853%" y1="-16.6655%" x2="86.6857%" y2="93.3317%">
			<stop stop-color="#38bfdd" stop-opacity="1" offset="0%"/>
			<stop stop-color="#0092b7" stop-opacity="1" offset="100%"/>
		</linearGradient>
		<linearGradient id="gradient3" x1="22.4853%" y1="-16.6655%" x2="86.6857%" y2="93.3317%">
			<stop stop-color="#38bfdd" stop-opacity="1" offset="0%"/>
			<stop stop-color="#0092b7" stop-opacity="1" offset="100%"/>
		</linearGradient>
		<linearGradient id="gradient4" x1="22.4854%" y1="-16.6667%" x2="86.6866%" y2="93.3339%">
			<stop stop-color="#38bfdd" stop-opacity="1" offset="0%"/>
			<stop stop-color="#0092b7" stop-opacity="1" offset="100%"/>
		</linearGradient>
	</defs>
	<g>
		<g>
			<g>
				<path d="M 505.8008 283.2903 L 83.8025 283.2903 L 83.8025 0.3867 L 505.8008 0.3867 L 505.8008 283.2903 Z" fill="#f4f4f4"/>
			</g>
			<g>
				<path d="M 505.8008 28.6455 L 83.8025 28.6455 L 83.8025 0.3867 L 505.8008 0.3867 L 505.8008 28.6455 Z" fill="#ebebeb"/>
			</g>
			<g>
				<path d="M 102.0812 14.5164 C 102.0812 16.269 100.5538 17.6897 98.6707 17.6897 C 96.7867 17.6897 95.2594 16.269 95.2594 14.5164 C 95.2594 12.7637 96.7867 11.3435 98.6707 11.3435 C 100.5538 11.3435 102.0812 12.7637 102.0812 14.5164 Z" fill="#f9f9f9"/>
			</g>
			<g>
				<path d="M 113.0879 14.5164 C 113.0879 16.269 111.5612 17.6897 109.6775 17.6897 C 107.7943 17.6897 106.267 16.269 106.267 14.5164 C 106.267 12.7637 107.7943 11.3435 109.6775 11.3435 C 111.5612 11.3435 113.0879 12.7637 113.0879 14.5164 Z" fill="#f9f9f9"/>
			</g>
			<g>
				<path d="M 124.0955 14.5164 C 124.0955 16.269 122.5686 17.6897 120.6848 17.6897 C 118.8016 17.6897 117.274 16.269 117.274 14.5164 C 117.274 12.7637 118.8016 11.3435 120.6848 11.3435 C 122.5686 11.3435 124.0955 12.7637 124.0955 14.5164 Z" fill="#f9f9f9"/>
			</g>
		</g>
		<path d="M 438.4503 24.4482 L 13.6819 24.4482 C 6.3586 24.4482 0.4227 30.3896 0.4227 37.7192 L 0.4227 338.0227 C 0.4227 345.3528 6.3586 351.2949 13.6819 351.2949 L 176.7074 351.2949 C 176.7074 351.2949 187.0774 383.3921 154.9303 400 L 307.3674 400 C 307.3674 400 271.0719 387.5449 280.4044 351.2949 L 438.4515 351.2949 C 445.7737 351.2949 451.7102 345.3528 451.7102 338.0239 L 451.7102 37.7197 C 451.7102 30.3896 445.7737 24.4482 438.4503 24.4482 Z" fill="#545ed7"/>
		<g>
			<path d="M 232.1803 319.6013 C 237.9585 327.8667 228.9153 336.9189 220.655 331.1365 C 220.3834 330.9451 220.1354 330.6975 219.9453 330.4243 C 214.183 322.1599 223.2152 313.1201 231.47 318.8901 C 231.7422 319.0803 231.9902 319.3281 232.1803 319.6013 Z" fill="#ffffff"/>
		</g>
		<g>
			<path d="M 437.5985 295.644 L 14.5342 295.644 C 12.2788 295.644 10.4504 293.8135 10.4504 291.5559 L 10.4504 43.7021 C 10.4504 41.4446 12.2788 39.6145 14.5342 39.6145 L 437.5985 39.6145 C 439.854 39.6145 441.6818 41.4446 441.6818 43.7014 L 441.6818 291.5571 C 441.6818 293.8147 439.854 295.644 437.5985 295.644 Z" fill="#e0e0e0"/>
		</g>
		<g>
			<path d="M 441.6818 295.644 L 10.4504 295.644 L 10.4504 58.3738 L 441.6818 58.3738 L 441.6818 295.644 Z" fill="#192d34"/>
		</g>
		<path id="336" d="M 424 92 L 341 92 L 341 82 L 424 82 L 424 92 Z" fill="#ffffff"/>
		<path id="335" d="M 407 103.4148 L 341 103.4148 L 341 99 L 407 99 L 407 103.4148 Z" fill="#ffffff"/>
		<path id="332" d="M 394 116 L 342 116 L 342 112 L 394 112 L 394 116 Z" fill="#ffffff"/>
		<path id="3362" d="M 424.3625 141.4214 L 341.433 141.4214 L 341.433 138.4497 L 424.3625 138.4497 L 424.3625 141.4214 Z" fill="#ffffff"/>
		<path id="3352" d="M 418 152.9377 L 341 152.9377 L 341 150 L 418 150 L 418 152.9377 Z" fill="#ffffff"/>
		<path id="3322" d="M 424.3625 163.7485 L 341.433 163.7485 L 341.433 160.7769 L 424.3625 160.7769 L 424.3625 163.7485 Z" fill="#ffffff"/>
		<path id="3363" d="M 424.3625 185.4214 L 341.433 185.4214 L 341.433 182.4497 L 424.3625 182.4497 L 424.3625 185.4214 Z" fill="#ffffff"/>
		<path id="3353" d="M 418 196.4353 L 341 196.4353 L 341 193.4976 L 418 193.4976 L 418 196.4353 Z" fill="#ffffff"/>
		<path id="3323" d="M 418 207.4719 L 341 207.4719 L 341 204.5342 L 418 204.5342 L 418 207.4719 Z" fill="#ffffff"/>
		<g>
			<path d="M 136 90.5 C 136 80.2791 137.2791 79 147.5 79 L 318.5 79 C 328.7209 79 330 80.2791 330 90.5 L 330 264.5 C 330 274.7209 328.7209 276 318.5 276 L 147.5 276 C 137.2791 276 136 274.7209 136 264.5 L 136 90.5 Z" fill="#3d3d89"/>
		</g>
		<path d="M 269.4359 166.7102 C 275.6344 143.4836 281.8093 120.2493 287.9542 97.0151 C 291.9719 97.0151 295.9823 97.0383 300 97 C 295.2273 114.8782 291.6517 133.0532 287.474 151.0762 C 286.5288 155.968 285.0878 160.7686 284.417 165.7058 C 284.3712 168.0112 287.3291 166.6719 288.686 166.4209 C 290.7673 167.8589 293.0012 169.7229 293.1002 172.4692 C 293.1155 176.874 288.4269 180.1226 284.257 179.5898 C 281.4971 179.3997 279.2478 177.5891 277.3877 175.71 C 275.8629 178.5327 273.4385 180.7693 270.5341 182.1311 C 274.5593 182.0474 278.5997 181.6667 282.6254 181.9331 C 285.6901 182.3367 287.047 185.6079 287.3064 188.3237 C 287.8931 193.4436 285.0952 199.1116 280.0333 200.8386 C 276.3584 202.2078 272.6001 200.2527 268.8794 200.5417 C 266.3484 200.8765 265.2886 203.5088 263.3752 204.8401 C 260.8591 205.5781 259.3954 202.071 256.9408 202.573 C 256.0715 203.3186 255.3014 204.1707 254.4478 204.9314 C 252.5037 205.2434 252.2216 202.748 251.8556 201.4165 C 251.2075 197.5747 249.675 193.8774 249.5685 189.9597 C 249.4465 187.9814 251.3066 185.8894 253.3727 186.6118 C 256.2469 187.5249 258.2823 190.4387 261.5531 190.2407 C 261.3702 187.5781 261.6368 184.885 262.7804 182.458 C 261.2482 181.6516 259.4565 180.48 259.6702 178.4871 C 260.2419 175.6416 262.933 173.9983 265.2659 172.6594 C 263.5427 171.5029 260.1656 170.5898 260.8896 167.9502 C 262.9635 165.5613 266.6686 165.896 269.4359 166.7102 Z" fill="#fefefe"/>
		<path d="M 236.5166 192.0366 C 240.7172 193.4819 245.4136 191.2832 249.3778 193.5503 C 250.8721 196.1904 250.3995 199.2639 250.4908 202.1621 C 250.4148 208.469 250.613 214.7759 250.3918 221.0752 C 250.5367 223.0229 249.05 225.2139 246.8772 224.7878 C 243.1569 224.0117 239.8329 221.9575 236.5928 220.0481 C 234.8013 218.968 233.0248 216.6094 234.1913 214.5095 C 235.129 212.5317 238.9332 213.9241 239.1392 211.3828 C 238.6511 204.8936 237.3322 198.4878 236.5166 192.0366 Z" fill="#fefefe"/>
		<path d="M 225.6754 193.4436 C 228.6641 194.0903 231.6602 194.7524 234.725 194.9272 C 235.7922 200.4888 236.7451 206.3389 235.594 211.9382 C 234.9308 214.4338 231.34 213.6804 230.5166 211.6567 C 227.551 206.0879 225.8052 199.7583 225.6754 193.4436 Z" fill="#fefefe"/>
		<path d="M 219.7898 201.7517 C 221.5663 200.6406 223.8304 202.459 223.9069 204.3535 C 224.2574 207.427 221.8635 209.9448 219.2333 211.1013 C 210.4889 215.1563 201.1344 217.6746 191.8334 220.1013 C 190.2247 220.3298 187.9452 220.8469 186.8322 219.394 C 187.8309 214.4033 193.7164 213.9468 197.7343 212.9275 C 205.8003 210.8579 213.2183 206.7954 219.7898 201.7517 Z" fill="#fefefe"/>
		<path d="M 285.4843 206.3542 C 288.5033 204.9392 292.1014 202.8472 295.3951 204.7109 C 299.5499 207.3662 300.2363 213.0186 299.1687 217.4617 C 298.1167 221.988 296.9352 226.6135 294.526 230.6306 C 292.7115 233.7192 289.0367 235.4917 285.4917 234.8225 C 275.1006 233.2021 265.0675 229.4133 256.0637 224.0044 C 254.0514 222.825 252.9916 220.4209 253.2203 218.1311 C 253.449 214.7988 254.4857 211.5579 254.4399 208.2031 C 257.3979 206.1335 261.2024 206.6968 264.5341 207.3052 C 271.403 208.7048 278.981 209.6333 285.4843 206.3542 Z" fill="#fefefe"/>
		<path d="M 186.2833 224.2019 C 200.6161 223.0608 214.6285 219.2417 227.9398 213.9163 C 228.6183 218.0171 225.5764 221.699 221.7493 222.7639 C 214.9489 224.8408 208.0264 226.53 201.1802 228.4546 C 196.8575 229.5806 191.7418 230.2729 187.8767 227.5188 C 186.7637 226.7734 186.5426 225.3962 186.2833 224.2019 Z" fill="#fefefe"/>
		<path d="M 164.9901 216.0464 C 169.7549 219.4929 175.8082 216.8301 181.0382 218.5342 C 183.1803 219.3179 185.5743 221.3113 184.6138 223.8672 C 180.4359 223.7759 176.3037 223.0229 172.1487 222.5737 C 170.3573 222.3 168.3521 222.3379 166.8578 221.1589 C 165.6609 219.7134 165.4626 217.7732 164.9901 216.0464 Z" fill="#fefefe"/>
		<path d="M 152.426 221.3337 C 154.1108 219.219 156.3064 216.9441 159.2264 216.9973 C 161.5212 217.0886 162.3978 219.4851 162.7943 221.3718 C 159.3484 221.8057 155.8644 221.813 152.426 221.3337 Z" fill="#fefefe"/>
		<path d="M 152.281 227.283 C 151.0309 224.78 154.248 223.7454 156.1158 223.5327 C 159.173 223.3347 162.7334 222.2393 165.4321 224.1868 C 164.9672 227.1841 161.6813 227.0171 159.3712 227.5571 C 157.0764 227.8232 154.271 229.0251 152.281 227.283 Z" fill="#fefefe"/>
		<path d="M 168.5503 227.0549 C 167.689 225.8455 168.6495 224.4988 168.9391 223.2815 C 170.9214 224.1794 172.9264 225.5559 175.2135 225.2366 C 177.7141 224.9629 180.6036 224.1106 182.8297 225.731 C 184.0878 226.5452 184.4384 228.0515 184.9415 229.3599 C 180.4054 228.9722 175.8998 228.3027 171.3787 227.8157 C 170.4333 227.6328 169.3356 227.709 168.5503 227.0549 Z" fill="#fefefe"/>
		<path d="M 192.5729 235.5454 C 206.6998 232.7151 220.5217 228.5764 234.6487 225.7693 C 236.3031 225.3962 238.5216 225.1604 239.5585 226.842 C 240.7477 229.1697 238.674 232.1218 236.1733 232.3042 C 230.5699 232.7681 224.913 232.6619 219.3555 233.5898 C 212.1205 234.5486 205.0685 236.4963 198.1307 238.7178 C 195.6454 239.7144 193.2057 237.9338 192.5729 235.5454 Z" fill="#fefefe"/>
		<path d="M 168.9163 234.1836 C 168.3368 232.2358 170.6239 231.4294 172.1259 231.4219 C 176.5248 231.1936 181.4574 229.7102 185.4523 232.251 C 186.7102 233.78 187.8844 235.53 187.8615 237.5991 C 182.9518 236.5874 177.9581 235.8953 172.934 235.8875 C 171.4932 235.8264 169.4651 235.8569 168.9163 234.1836 Z" fill="#fefefe"/>
		<path d="M 153.2037 234.0615 C 156.5734 234.2292 159.6687 232.053 163.0459 232.7834 C 164.9901 233.4302 165.4779 235.5527 165.1807 237.3711 C 162.4589 237.6448 159.7677 238.3069 157.0232 238.2991 C 154.8123 238.1697 153.9813 235.7507 153.2037 234.0615 Z" fill="#fefefe"/>
		<g>
			<path d="M 45.818 49.5022 C 45.818 51.406 44.276 52.9495 42.3739 52.9495 C 40.4719 52.9495 38.9304 51.406 38.9304 49.5022 C 38.9304 47.5981 40.4719 46.0554 42.3739 46.0554 C 44.276 46.0554 45.818 47.5981 45.818 49.5022 Z" fill="url(#gradient1)"/>
		</g>
		<g>
			<path d="M 24.9451 49.5022 C 24.9451 51.406 23.4037 52.9495 21.501 52.9495 C 19.5995 52.9495 18.0569 51.406 18.0569 49.5022 C 18.0569 47.5981 19.5995 46.0554 21.501 46.0554 C 23.4037 46.0554 24.9451 47.5981 24.9451 49.5022 Z" fill="url(#gradient2)"/>
		</g>
		<g>
			<path d="M 34.9642 49.5022 C 34.9642 51.406 33.4229 52.9495 31.5201 52.9495 C 29.618 52.9495 28.076 51.406 28.076 49.5022 C 28.076 47.5981 29.618 46.0554 31.5201 46.0554 C 33.4229 46.0554 34.9642 47.5981 34.9642 49.5022 Z" fill="url(#gradient3)"/>
		</g>
		<g>
			<path d="M 118.062 127.7275 C 118.062 147.7139 101.8752 163.9155 81.9083 163.9155 C 61.9413 163.9155 45.7546 147.7139 45.7546 127.7275 C 45.7546 107.7419 61.9413 91.54 81.9083 91.54 C 101.8752 91.54 118.062 107.7419 118.062 127.7275 Z" fill="#e0e0e0"/>
		</g>
		<g>
			<path d="M 42.2783 187.8716 L 99.4248 187.8716 L 99.4248 192.0525 L 42.2783 192.0525 L 42.2783 187.8716 Z" fill="#009eb7"/>
		</g>
		<g>
			<path d="M 59.2515 155.373 C 65.3976 160.6914 73.4025 163.9155 82.1642 163.9155 C 90.9423 163.9155 98.96 160.6792 105.1112 155.3433 C 103.1975 148.801 98.5293 141.0271 87.1886 139.3127 C 92.1188 137.2432 95.6287 132.1519 95.6542 126.1523 C 95.6877 118.2942 89.7469 111.8953 82.386 111.8618 C 75.0243 111.8276 69.0299 118.1704 68.9971 126.0286 C 68.9708 132.0828 72.5063 137.2363 77.49 139.314 C 65.9592 141.0532 61.2047 148.865 59.2515 155.373 Z" fill="url(#gradient4)"/>
		</g>
		<path id="290" d="M 84.1011 207.7107 L 42.224 207.7107 L 42.224 205 L 84.1011 205 L 84.1011 207.7107 Z" fill="#ffffff"/>
		<path id="288" d="M 93 217 L 43 217 L 43 214 L 93 214 L 93 217 Z" fill="#ffffff"/>
		<path id="286" d="M 75.7297 233.7551 L 42 233.7551 L 42 231 L 75.7297 231 L 75.7297 233.7551 Z" fill="#ffffff"/>
		<path id="284" d="M 66 243 L 42 243 L 42 240 L 66 240 L 66 243 Z" fill="#ffffff"/>
		<path id="282" d="M 99 225.8994 L 42 225.8994 L 42 223.1887 L 99 223.1887 L 99 225.8994 Z" fill="#ffffff"/>
		<path id="3364" d="M 418 220 L 341 220 L 341 217.0623 L 418 217.0623 L 418 220 Z" fill="#ffffff"/>
		<path id="3354" d="M 416 232 L 341 232 L 341 229 L 416 229 L 416 232 Z" fill="#ffffff"/>
		<path id="3324" d="M 403 243 L 341 243 L 341 240 L 403 240 L 403 243 Z" fill="#ffffff"/>
	</g>
</svg>