<?xml version="1.0" standalone="no"?>
<!-- Generator: Adobe Fireworks 10, Export SVG Extension by Aaron Beall (http://fireworks.abeall.com) . Version: 0.6.1  -->
<!DOCTYPE svg PUBLIC "-//W3C//DTD SVG 1.1//EN" "http://www.w3.org/Graphics/SVG/1.1/DTD/svg11.dtd">
<svg id="Untitled-Page%201" viewBox="0 0 483 366" style="background-color:#ffffff00" version="1.1"
	xmlns="http://www.w3.org/2000/svg" xmlns:xlink="http://www.w3.org/1999/xlink" xml:space="preserve"
	x="0px" y="0px" width="483px" height="366px"
>
	<defs>
		<linearGradient id="gradient1" x1="10.3673%" y1="-11.4682%" x2="89.6332%" y2="111.4692%">
			<stop stop-color="#35c9e2" stop-opacity="0.498" offset="1%"/>
			<stop stop-color="#35e6bb" stop-opacity="1" offset="99%"/>
		</linearGradient>
		<linearGradient id="gradient2" x1="3.0921%" y1="2.6309%" x2="98.9687%" y2="96.0523%">
			<stop stop-color="#e62c75" stop-opacity="1" offset="0%"/>
			<stop stop-color="#f58ab6" stop-opacity="1" offset="100%"/>
		</linearGradient>
		<linearGradient id="gradient3" x1="3.0924%" y1="2.6315%" x2="98.9692%" y2="96.0534%">
			<stop stop-color="#e62c75" stop-opacity="1" offset="0%"/>
			<stop stop-color="#f58ab6" stop-opacity="1" offset="100%"/>
		</linearGradient>
		<linearGradient id="gradient4" x1="20.1184%" y1="-58.3335%" x2="44.3788%" y2="71.6669%">
			<stop stop-color="#00ffff" stop-opacity="1" offset="0%"/>
			<stop stop-color="#009eb7" stop-opacity="1" offset="100%"/>
		</linearGradient>
		<linearGradient id="gradient5" x1="10.3673%" y1="-11.4684%" x2="89.6331%" y2="111.4691%">
			<stop stop-color="#35c9e2" stop-opacity="0.498" offset="1%"/>
			<stop stop-color="#35e6bb" stop-opacity="1" offset="99%"/>
		</linearGradient>
		<linearGradient id="gradient6" x1="20.1185%" y1="-58.3331%" x2="44.3787%" y2="71.6662%">
			<stop stop-color="#00ffff" stop-opacity="1" offset="0%"/>
			<stop stop-color="#009eb7" stop-opacity="1" offset="100%"/>
		</linearGradient>
		<linearGradient id="gradient7" x1="22.4853%" y1="-16.6665%" x2="86.6867%" y2="93.3331%">
			<stop stop-color="#38bfdd" stop-opacity="1" offset="0%"/>
			<stop stop-color="#0092b7" stop-opacity="1" offset="100%"/>
		</linearGradient>
		<linearGradient id="gradient8" x1="20.1182%" y1="-58.3335%" x2="44.3787%" y2="71.6665%">
			<stop stop-color="#00ffff" stop-opacity="1" offset="0%"/>
			<stop stop-color="#009eb7" stop-opacity="1" offset="100%"/>
		</linearGradient>
		<linearGradient id="gradient9" x1="20.1183%" y1="-58.3335%" x2="44.3787%" y2="71.6666%">
			<stop stop-color="#00ffff" stop-opacity="1" offset="0%"/>
			<stop stop-color="#009eb7" stop-opacity="1" offset="100%"/>
		</linearGradient>
	</defs>
	<g>
		<path id="160" d="M 115.7355 250.9607 L 38.4326 250.9607 C 32.882 250.9607 28.3824 246.4817 28.3824 240.9563 L 28.3824 164.0056 C 28.3824 158.481 32.882 154.002 38.4326 154.002 L 115.7355 154.002 C 121.286 154.002 125.786 158.481 125.786 164.0056 L 125.786 240.9563 C 125.786 246.4817 121.286 250.9607 115.7355 250.9607 Z" fill="url(#gradient1)"/>
		<g>
			<path d="M 460.6035 127.5417 C 460.6035 127.5417 460.4762 127.552 460.2158 127.5571 C 459.9409 127.5605 459.5554 127.5657 459.0533 127.5718 C 458.0092 127.5789 456.4911 127.5886 454.5271 127.6021 C 450.5525 127.6157 444.787 127.6362 437.551 127.6621 C 423.0177 127.6841 402.5913 127.7166 378.9609 127.7529 L 378.8029 127.7532 L 378.7581 127.6008 C 377.5449 123.4617 378.286 118.6108 380.9978 114.9011 C 383.7 111.2024 388.3416 108.8447 393.1233 108.9678 L 392.9059 109.2478 C 392.5552 108.0378 392.3909 106.6746 392.4521 105.3149 C 392.6339 100.7874 395.2086 96.4133 399.162 94.3879 C 403.0634 92.3281 407.8792 92.4045 411.5759 94.4551 L 411.2728 94.5623 C 413.3785 89.4255 417.8221 85.7012 422.6436 83.9746 C 427.4788 82.218 432.8412 82.4482 437.0565 84.6541 C 441.2943 86.8245 444.3101 90.5215 445.9808 94.4006 C 447.6949 98.3013 447.9312 102.4897 447.0782 106.0869 L 446.9152 105.9011 C 449.3386 105.6326 451.6832 106.0486 453.6976 106.8726 C 455.715 107.6995 457.4283 108.9131 458.7288 110.3201 C 459.3767 111.0208 459.9373 111.781 460.3141 112.5913 C 460.6888 113.3994 460.9677 114.2102 461.1572 115.0046 C 461.5466 116.5916 461.6865 118.0791 461.734 119.4116 C 461.8195 122.0825 461.4969 124.1409 461.2057 125.5037 C 461.0483 126.1848 460.9122 126.697 460.785 127.0398 C 460.6676 127.3801 460.6035 127.5417 460.6035 127.5417 L 460.6035 127.5417 Z" fill="#ebebeb"/>
		</g>
		<g>
			<path d="M 103.2975 210.6714 L 100.3005 210.6714 L 100.3005 192.6484 C 100.3005 188.3203 96.7786 184.7988 92.449 184.7988 C 88.1195 184.7988 84.5972 188.3203 84.5972 192.6484 L 84.5972 210.6714 L 81.6003 210.6714 L 81.6003 192.6484 C 81.6003 186.6682 86.4668 181.8025 92.449 181.8025 C 98.4307 181.8025 103.2975 186.6682 103.2975 192.6484 L 103.2975 210.6714 Z" fill="url(#gradient2)"/>
		</g>
		<g>
			<path d="M 103.9073 221.6829 L 80.9904 221.6829 C 79.127 221.6829 77.6166 220.1729 77.6166 218.3093 L 77.6166 206.0278 C 77.6166 204.1638 79.127 202.6543 80.9904 202.6543 L 103.9073 202.6543 C 105.7706 202.6543 107.2811 204.1638 107.2811 206.0278 L 107.2811 218.3093 C 107.2811 220.1729 105.7706 221.6829 103.9073 221.6829 Z" fill="url(#gradient3)"/>
		</g>
		<g>
			<g>
				<path d="M 92.4485 212.1677 C 91.0795 212.1677 89.9694 211.0579 89.9694 209.6897 C 89.9694 208.3206 91.0795 207.2104 92.4485 207.2104 C 93.818 207.2104 94.9285 208.3206 94.9285 209.6897 C 94.9285 211.0579 93.818 212.1677 92.4485 212.1677 L 92.4485 212.1677 Z" fill="#000000"/>
			</g>
			<g>
				<path d="M 93.1251 215.7698 L 91.7727 215.7698 L 91.7727 210.6714 L 93.1251 210.6714 L 93.1251 215.7698 Z" fill="#000000"/>
			</g>
		</g>
		<path d="M 76.8765 210.4568 C 81.042 208.71 84.0046 204.4146 84.0289 199.3533 C 84.0562 192.7236 79.0381 187.3257 72.8193 187.2969 C 66.6036 187.2686 61.5398 192.6196 61.5127 199.2493 C 61.4918 204.3574 64.475 208.7041 68.6864 210.4568 C 51.3613 213.0674 52.147 231.8931 52.147 231.8931 L 93.1163 232.0813 C 93.1163 232.0813 94.0508 213.0505 76.8765 210.4568 Z" fill="#ffffff"/>
		<g>
			<g>
				<path d="M 58.3331 258.0417 C 58.1902 258.0417 58.074 257.4851 58.074 256.7988 C 58.074 256.1123 58.1902 255.5557 58.3331 255.5557 C 58.476 255.5557 58.592 256.1123 58.592 256.7988 C 58.592 257.4851 58.476 258.0417 58.3331 258.0417 Z" fill="#263238"/>
			</g>
			<g>
				<path d="M 58.3331 268.9214 C 58.1902 268.9214 58.074 267.7034 58.074 266.2019 C 58.074 264.6995 58.1902 263.4819 58.3331 263.4819 C 58.476 263.4819 58.592 264.6995 58.592 266.2019 C 58.592 267.7034 58.476 268.9214 58.3331 268.9214 Z" fill="#263238"/>
			</g>
			<g>
				<path d="M 58.3331 279.8015 C 58.1902 279.8015 58.074 278.5835 58.074 277.0813 C 58.074 275.5791 58.1902 274.3613 58.3331 274.3613 C 58.476 274.3613 58.592 275.5791 58.592 277.0813 C 58.592 278.5835 58.476 279.8015 58.3331 279.8015 Z" fill="#263238"/>
			</g>
			<g>
				<path d="M 58.3331 290.6804 C 58.1902 290.6804 58.074 289.4629 58.074 287.9617 C 58.074 286.4583 58.1902 285.2415 58.3331 285.2415 C 58.476 285.2415 58.592 286.4583 58.592 287.9617 C 58.592 289.4629 58.476 290.6804 58.3331 290.6804 Z" fill="#263238"/>
			</g>
			<g>
				<path d="M 58.3331 301.561 C 58.1902 301.561 58.074 300.3433 58.074 298.8408 C 58.074 297.3384 58.1902 296.1206 58.3331 296.1206 C 58.476 296.1206 58.592 297.3384 58.592 298.8408 C 58.592 300.3433 58.476 301.561 58.3331 301.561 Z" fill="#263238"/>
			</g>
			<g>
				<path d="M 60.8193 309.4861 C 60.8193 309.6296 59.7061 309.7454 58.3331 309.7454 C 57.8151 309.2278 58.1896 309.6018 58.074 309.4861 L 58.074 309.4844 L 58.074 309.4822 L 58.074 309.4785 L 58.074 309.4707 L 58.074 309.4541 L 58.074 309.4221 L 58.0743 309.3586 L 58.0754 309.2327 L 58.0792 308.9854 C 58.0842 308.8374 58.0889 308.6851 58.0942 308.519 C 58.1075 308.2217 58.1263 307.9539 58.1497 307.7285 C 58.1968 307.2786 58.2614 307.0002 58.3331 307.0002 C 58.4047 307.0002 58.4691 307.2786 58.5159 307.7285 C 58.5397 307.9539 58.5586 308.2217 58.5717 308.519 C 58.5771 308.6851 58.5819 308.8374 58.5867 308.9854 L 58.5907 309.2327 L 58.5917 309.3586 L 58.592 309.4221 L 58.592 309.4541 L 58.592 309.4707 L 58.592 309.4785 L 58.592 309.4822 L 58.592 309.4844 L 58.592 309.4861 C 58.4763 309.3704 58.8505 309.7454 58.3331 309.2278 C 59.7061 309.2278 60.8193 309.3433 60.8193 309.4861 Z" fill="#263238"/>
			</g>
			<g>
				<path d="M 70.5934 309.4861 C 70.5934 309.6296 69.499 309.7454 68.1499 309.7454 C 66.8 309.7454 65.7062 309.6296 65.7062 309.4861 C 65.7062 309.3433 66.8 309.2278 68.1499 309.2278 C 69.499 309.2278 70.5934 309.3433 70.5934 309.4861 Z" fill="#263238"/>
			</g>
			<g>
				<path d="M 80.3668 309.4861 C 80.3668 309.6296 79.2727 309.7454 77.9236 309.7454 C 76.574 309.7454 75.4803 309.6296 75.4803 309.4861 C 75.4803 309.3433 76.574 309.2278 77.9236 309.2278 C 79.2727 309.2278 80.3668 309.3433 80.3668 309.4861 Z" fill="#263238"/>
			</g>
			<g>
				<path d="M 90.141 309.4861 C 90.141 309.6296 89.0469 309.7454 87.6975 309.7454 C 86.3475 309.7454 85.2539 309.6296 85.2539 309.4861 C 85.2539 309.3433 86.3475 309.2278 87.6975 309.2278 C 89.0469 309.2278 90.141 309.3433 90.141 309.4861 Z" fill="#263238"/>
			</g>
			<g>
				<path d="M 99.9144 309.4861 C 99.9144 309.6296 98.8204 309.7454 97.4712 309.7454 C 96.1216 309.7454 95.0275 309.6296 95.0275 309.4861 C 95.0275 309.3433 96.1216 309.2278 97.4712 309.2278 C 98.8204 309.2278 99.9144 309.3433 99.9144 309.4861 Z" fill="#263238"/>
			</g>
			<g>
				<path d="M 109.6881 309.4861 C 109.6881 309.6296 108.5945 309.7454 107.2449 309.7454 C 105.8953 309.7454 104.8016 309.6296 104.8016 309.4861 C 104.8016 309.3433 105.8953 309.2278 107.2449 309.2278 C 108.5945 309.2278 109.6881 309.3433 109.6881 309.4861 Z" fill="#263238"/>
			</g>
			<g>
				<path d="M 119.4622 309.4861 C 119.4622 309.6296 118.368 309.7454 117.0188 309.7454 C 115.6693 309.7454 114.5752 309.6296 114.5752 309.4861 C 114.5752 309.3433 115.6693 309.2278 117.0188 309.2278 C 118.368 309.2278 119.4622 309.3433 119.4622 309.4861 Z" fill="#263238"/>
			</g>
			<g>
				<path d="M 129.2357 309.4861 C 129.2357 309.6296 128.1416 309.7454 126.7925 309.7454 C 125.4429 309.7454 124.3492 309.6296 124.3492 309.4861 C 124.3492 309.3433 125.4429 309.2278 126.7925 309.2278 C 128.1416 309.2278 129.2357 309.3433 129.2357 309.4861 Z" fill="#263238"/>
			</g>
			<g>
				<path d="M 139.0099 309.4861 C 139.0099 309.6296 137.9158 309.7454 136.5665 309.7454 C 135.2166 309.7454 134.1229 309.6296 134.1229 309.4861 C 134.1229 309.3433 135.2166 309.2278 136.5665 309.2278 C 137.9158 309.2278 139.0099 309.3433 139.0099 309.4861 Z" fill="#263238"/>
			</g>
			<g>
				<path d="M 148.7833 309.4861 C 148.7833 309.6296 147.6893 309.7454 146.3401 309.7454 C 144.9906 309.7454 143.8965 309.6296 143.8965 309.4861 C 143.8965 309.3433 144.9906 309.2278 146.3401 309.2278 C 147.6893 309.2278 148.7833 309.3433 148.7833 309.4861 Z" fill="#263238"/>
			</g>
			<g>
				<path d="M 158.5574 309.4861 C 158.5574 309.6296 157.4633 309.7454 156.1136 309.7454 C 154.7642 309.7454 153.6704 309.6296 153.6704 309.4861 C 153.6704 309.3433 154.7642 309.2278 156.1136 309.2278 C 157.4633 309.2278 158.5574 309.3433 158.5574 309.4861 Z" fill="#263238"/>
			</g>
			<g>
				<path d="M 165.9304 309.4861 C 165.9304 309.6296 165.3741 309.7454 164.6874 309.7454 C 164.0005 309.7454 163.444 309.6296 163.444 309.4861 C 163.444 309.3433 164.0005 309.2278 164.6874 309.2278 C 165.3741 309.2278 165.9304 309.3433 165.9304 309.4861 Z" fill="#263238"/>
			</g>
		</g>
		<g>
			<g>
				<path d="M 132.5094 114.439 C 132.3668 114.439 132.2506 113.3254 132.2506 111.9529 C 132.2506 110.5801 132.3668 109.467 132.5094 109.467 C 132.6527 109.467 132.7688 110.5801 132.7688 111.9529 C 132.7688 113.3254 132.6527 114.439 132.5094 114.439 Z" fill="#263238"/>
			</g>
			<g>
				<path d="M 132.5094 124.3833 C 132.3668 124.3833 132.2506 123.2698 132.2506 121.897 C 132.2506 120.5237 132.3668 119.4111 132.5094 119.4111 C 132.6527 119.4111 132.7688 120.5237 132.7688 121.897 C 132.7688 123.2698 132.6527 124.3833 132.5094 124.3833 Z" fill="#263238"/>
			</g>
			<g>
				<path d="M 132.5094 134.3271 C 132.3668 134.3271 132.2506 133.2139 132.2506 131.8411 C 132.2506 130.468 132.3668 129.355 132.5094 129.355 C 132.6527 129.355 132.7688 130.468 132.7688 131.8411 C 132.7688 133.2139 132.6527 134.3271 132.5094 134.3271 Z" fill="#263238"/>
			</g>
			<g>
				<path d="M 132.5094 144.2712 C 132.3668 144.2712 132.2506 143.1582 132.2506 141.7856 C 132.2506 140.4121 132.3668 139.2991 132.5094 139.2991 C 132.6527 139.2991 132.7688 140.4121 132.7688 141.7856 C 132.7688 143.1582 132.6527 144.2712 132.5094 144.2712 Z" fill="#263238"/>
			</g>
			<g>
				<path d="M 132.5094 154.2156 C 132.3668 154.2156 132.2506 153.1021 132.2506 151.7295 C 132.2506 150.3564 132.3668 149.2434 132.5094 149.2434 C 132.6527 149.2434 132.7688 150.3564 132.7688 151.7295 C 132.7688 153.1021 132.6527 154.2156 132.5094 154.2156 Z" fill="#263238"/>
			</g>
			<g>
				<path d="M 132.5094 164.1597 C 132.3668 164.1597 132.2506 163.0461 132.2506 161.6736 C 132.2506 160.3005 132.3668 159.1873 132.5094 159.1873 C 132.6527 159.1873 132.7688 160.3005 132.7688 161.6736 C 132.7688 163.0461 132.6527 164.1597 132.5094 164.1597 Z" fill="#263238"/>
			</g>
			<g>
				<path d="M 132.5094 174.1038 C 132.3668 174.1038 132.2506 172.9905 132.2506 171.6177 C 132.2506 170.2446 132.3668 169.1318 132.5094 169.1318 C 132.6527 169.1318 132.7688 170.2446 132.7688 171.6177 C 132.7688 172.9905 132.6527 174.1038 132.5094 174.1038 Z" fill="#263238"/>
			</g>
			<g>
				<path d="M 132.5094 184.0479 C 132.3668 184.0479 132.2506 182.9343 132.2506 181.562 C 132.2506 180.1885 132.3668 179.0757 132.5094 179.0757 C 132.6527 179.0757 132.7688 180.1885 132.7688 181.562 C 132.7688 182.9343 132.6527 184.0479 132.5094 184.0479 Z" fill="#263238"/>
			</g>
			<g>
				<path d="M 137.3087 189.1938 C 137.3087 189.3367 136.1956 189.4526 134.8221 189.4526 C 133.7668 189.4526 132.865 189.384 132.5094 189.2874 L 132.3998 189.2573 L 132.4158 189.1938 C 132.4448 189.0798 132.4764 189.0198 132.5094 189.0198 C 132.5425 189.0198 132.5746 189.0798 132.6033 189.1938 L 132.5094 189.0999 C 132.865 189.0034 133.7668 188.9348 134.8221 188.9348 C 136.1956 188.9348 137.3087 189.0505 137.3087 189.1938 Z" fill="#263238"/>
			</g>
			<g>
				<path d="M 147.2546 189.1938 C 147.2546 189.3367 146.1416 189.4526 144.7681 189.4526 C 143.3947 189.4526 142.2815 189.3367 142.2815 189.1938 C 142.2815 189.0505 143.3947 188.9348 144.7681 188.9348 C 146.1416 188.9348 147.2546 189.0505 147.2546 189.1938 Z" fill="#263238"/>
			</g>
			<g>
				<path d="M 157.2006 189.1938 C 157.2006 189.3367 156.0874 189.4526 154.7142 189.4526 C 153.3406 189.4526 152.2277 189.3367 152.2277 189.1938 C 152.2277 189.0505 153.3406 188.9348 154.7142 188.9348 C 156.0874 188.9348 157.2006 189.0505 157.2006 189.1938 Z" fill="#263238"/>
			</g>
			<g>
				<path d="M 167.1466 189.1938 C 167.1466 189.3367 166.0333 189.4526 164.66 189.4526 C 163.2866 189.4526 162.1736 189.3367 162.1736 189.1938 C 162.1736 189.0505 163.2866 188.9348 164.66 188.9348 C 166.0333 188.9348 167.1466 189.0505 167.1466 189.1938 Z" fill="#263238"/>
			</g>
			<g>
				<path d="M 177.0927 189.1938 C 177.0927 189.3367 175.9795 189.4526 174.606 189.4526 C 173.2325 189.4526 172.1194 189.3367 172.1194 189.1938 C 172.1194 189.0505 173.2325 188.9348 174.606 188.9348 C 175.9795 188.9348 177.0927 189.0505 177.0927 189.1938 Z" fill="#263238"/>
			</g>
		</g>
		<g>
			<g>
				<path d="M 342.7465 99.2397 C 342.6039 99.2397 342.4877 98.1274 342.4877 96.7551 C 342.4877 95.3826 342.6039 94.27 342.7465 94.27 C 342.8894 94.27 343.0059 95.3826 343.0059 96.7551 C 343.0059 98.1274 342.8894 99.2397 342.7465 99.2397 Z" fill="#263238"/>
			</g>
			<g>
				<path d="M 342.7465 109.1807 C 342.6039 109.1807 342.4877 108.0681 342.4877 106.6953 C 342.4877 105.322 342.6039 104.2092 342.7465 104.2092 C 342.8894 104.2092 343.0059 105.322 343.0059 106.6953 C 343.0059 108.0681 342.8894 109.1807 342.7465 109.1807 Z" fill="#263238"/>
			</g>
			<g>
				<path d="M 342.7465 119.1233 C 342.6039 119.1233 342.4877 118.0107 342.4877 116.6384 C 342.4877 115.2659 342.6039 114.1533 342.7465 114.1533 C 342.8894 114.1533 343.0059 115.2659 343.0059 116.6384 C 343.0059 118.0107 342.8894 119.1233 342.7465 119.1233 Z" fill="#263238"/>
			</g>
			<g>
				<path d="M 342.7465 129.0632 C 342.6039 129.0632 342.4877 127.9504 342.4877 126.5781 C 342.4877 125.2053 342.6039 124.0928 342.7465 124.0928 C 342.8894 124.0928 343.0059 125.2053 343.0059 126.5781 C 343.0059 127.9504 342.8894 129.0632 342.7465 129.0632 Z" fill="#263238"/>
			</g>
			<g>
				<path d="M 342.7465 139.0098 C 342.6039 139.0098 342.4877 137.896 342.4877 136.5229 C 342.4877 135.1489 342.6039 134.0354 342.7465 134.0354 C 342.8894 134.0354 343.0059 135.1489 343.0059 136.5229 C 343.0059 137.896 342.8894 139.0098 342.7465 139.0098 Z" fill="#263238"/>
			</g>
			<g>
				<path d="M 342.7465 148.9583 C 342.6039 148.9583 342.4877 147.8457 342.4877 146.4727 C 342.4877 145.0991 342.6039 143.9866 342.7465 143.9866 C 342.8894 143.9866 343.0059 145.0991 343.0059 146.4727 C 343.0059 147.8457 342.8894 148.9583 342.7465 148.9583 Z" fill="#263238"/>
			</g>
			<g>
				<path d="M 342.7465 158.9031 C 342.6039 158.9031 342.4877 157.7898 342.4877 156.417 C 342.4877 155.0439 342.6039 153.9309 342.7465 153.9309 C 342.8894 153.9309 343.0059 155.0439 343.0059 156.417 C 343.0059 157.7898 342.8894 158.9031 342.7465 158.9031 Z" fill="#263238"/>
			</g>
			<g>
				<path d="M 342.7465 168.8521 C 342.6039 168.8521 342.4877 167.7375 342.4877 166.3638 C 342.4877 164.9893 342.6039 163.8757 342.7465 163.8757 C 342.8894 163.8757 343.0059 164.9893 343.0059 166.3638 C 343.0059 167.7375 342.8894 168.8521 342.7465 168.8521 Z" fill="#263238"/>
			</g>
		</g>
		<g>
			<g>
				<path d="M 215.0254 97.0608 C 214.8828 97.0608 214.7666 95.9485 214.7666 94.5762 C 214.7666 93.2039 214.8828 92.0913 215.0254 92.0913 C 215.1682 92.0913 215.2847 93.2039 215.2847 94.5762 C 215.2847 95.9485 215.1682 97.0608 215.0254 97.0608 Z" fill="#263238"/>
			</g>
			<g>
				<path d="M 215.0254 107.002 C 214.8828 107.002 214.7666 105.8894 214.7666 104.5164 C 214.7666 103.1431 214.8828 102.0303 215.0254 102.0303 C 215.1682 102.0303 215.2847 103.1431 215.2847 104.5164 C 215.2847 105.8894 215.1682 107.002 215.0254 107.002 Z" fill="#263238"/>
			</g>
			<g>
				<path d="M 215.0254 116.9446 C 214.8828 116.9446 214.7666 115.832 214.7666 114.4595 C 214.7666 113.0872 214.8828 111.9746 215.0254 111.9746 C 215.1682 111.9746 215.2847 113.0872 215.2847 114.4595 C 215.2847 115.832 215.1682 116.9446 215.0254 116.9446 Z" fill="#263238"/>
			</g>
			<g>
				<path d="M 215.0254 126.8845 C 214.8828 126.8845 214.7666 125.7715 214.7666 124.3992 C 214.7666 123.0264 214.8828 121.9138 215.0254 121.9138 C 215.1682 121.9138 215.2847 123.0264 215.2847 124.3992 C 215.2847 125.7715 215.1682 126.8845 215.0254 126.8845 Z" fill="#263238"/>
			</g>
			<g>
				<path d="M 215.0254 136.8311 C 214.8828 136.8311 214.7666 135.717 214.7666 134.3442 C 214.7666 132.9702 214.8828 131.8564 215.0254 131.8564 C 215.1682 131.8564 215.2847 132.9702 215.2847 134.3442 C 215.2847 135.717 215.1682 136.8311 215.0254 136.8311 Z" fill="#263238"/>
			</g>
			<g>
				<path d="M 215.0254 146.7795 C 214.8828 146.7795 214.7666 145.667 214.7666 144.2939 C 214.7666 142.9202 214.8828 141.8076 215.0254 141.8076 C 215.1682 141.8076 215.2847 142.9202 215.2847 144.2939 C 215.2847 145.667 215.1682 146.7795 215.0254 146.7795 Z" fill="#263238"/>
			</g>
			<g>
				<path d="M 215.0254 156.7241 C 214.8828 156.7241 214.7666 155.6111 214.7666 154.238 C 214.7666 152.8652 214.8828 151.752 215.0254 151.752 C 215.1682 151.752 215.2847 152.8652 215.2847 154.238 C 215.2847 155.6111 215.1682 156.7241 215.0254 156.7241 Z" fill="#263238"/>
			</g>
			<g>
				<path d="M 215.0254 166.6731 C 214.8828 166.6731 214.7666 165.5586 214.7666 164.1851 C 214.7666 162.8103 214.8828 161.6968 215.0254 161.6968 C 215.1682 161.6968 215.2847 162.8103 215.2847 164.1851 C 215.2847 165.5586 215.1682 166.6731 215.0254 166.6731 Z" fill="#263238"/>
			</g>
		</g>
		<path d="M 410.2908 105.6218 C 410.2908 105.6218 410.0985 105.6367 409.7041 105.6448 C 409.2875 105.6499 408.7037 105.6577 407.9441 105.6675 C 406.3629 105.678 404.0648 105.6931 401.0918 105.7131 C 395.0736 105.7339 386.3439 105.7651 375.3885 105.804 C 353.3831 105.8379 322.4568 105.8862 286.6786 105.9412 L 286.4392 105.9417 L 286.3716 105.7112 C 284.5349 99.4434 285.6573 92.0996 289.7625 86.4834 C 293.8539 80.8823 300.8811 77.3137 308.1217 77.5 L 307.7927 77.9236 C 307.2616 76.0918 307.0133 74.0271 307.1061 71.9695 C 307.3801 65.1133 311.2782 58.4915 317.2638 55.4255 C 323.1713 52.3066 330.4633 52.4224 336.0597 55.5266 L 335.6013 55.6892 C 338.7902 47.9116 345.5176 42.2717 352.8168 39.6582 C 360.1375 36.998 368.2565 37.3479 374.6399 40.6863 C 381.056 43.9729 385.6221 49.571 388.1512 55.4438 C 390.7467 61.3503 391.1049 67.6914 389.8132 73.1375 L 389.5656 72.8557 C 393.235 72.4502 396.785 73.0798 399.8348 74.3269 C 402.8907 75.5793 405.4839 77.4172 407.4526 79.5471 C 408.4327 80.6082 409.2816 81.7595 409.8528 82.9861 C 410.4199 84.2095 410.8425 85.437 411.129 86.6401 C 411.7196 89.042 411.9303 91.2949 412.0032 93.312 C 412.1326 97.3555 411.6439 100.4724 411.203 102.5359 C 410.965 103.5674 410.7581 104.3418 410.5667 104.8611 C 410.3879 105.3777 410.2908 105.6218 410.2908 105.6218 L 410.2908 105.6218 Z" fill="url(#gradient4)"/>
		<g>
			<path d="M 399.0365 71.5618 L 395.2068 71.5618 L 395.2068 48.5288 C 395.2068 42.9963 390.7048 38.4958 385.1725 38.4958 C 379.639 38.4958 375.137 42.9963 375.137 48.5288 L 375.137 71.5618 L 371.3064 71.5618 L 371.3064 48.5288 C 371.3064 40.885 377.5264 34.666 385.1725 34.666 C 392.8175 34.666 399.0365 40.885 399.0365 48.5288 L 399.0365 71.5618 Z" fill="#e0e0e0"/>
		</g>
		<g>
			<path d="M 400.7548 85.6348 L 369.5891 85.6348 C 367.7261 85.6348 366.2157 84.1248 366.2157 82.2617 L 366.2157 64.689 C 366.2157 62.8259 367.7261 61.3154 369.5891 61.3154 L 400.7548 61.3154 C 402.6177 61.3154 404.1279 62.8259 404.1279 64.689 L 404.1279 82.2617 C 404.1279 84.1248 402.6177 85.6348 400.7548 85.6348 Z" fill="#e0e0e0"/>
		</g>
		<g>
			<g>
				<path d="M 385.1714 73.4756 C 383.4221 73.4756 382.0031 72.0569 382.0031 70.3069 C 382.0031 68.5574 383.4221 67.1387 385.1714 67.1387 C 386.9218 67.1387 388.3407 68.5574 388.3407 70.3069 C 388.3407 72.0569 386.9218 73.4756 385.1714 73.4756 L 385.1714 73.4756 Z" fill="#455a64"/>
			</g>
			<g>
				<path d="M 386.0369 78.0776 L 384.307 78.0776 L 384.307 71.5618 L 386.0369 71.5618 L 386.0369 78.0776 Z" fill="#455a64"/>
			</g>
		</g>
		<path id="316" d="M 468.351 366 L 208.9608 366 C 200.87 366 194.3108 359.4568 194.3108 351.3848 L 194.3108 194.938 C 194.3108 186.8677 200.87 180.3257 208.9608 180.3257 L 468.351 180.3257 C 476.4408 180.3257 483 186.8677 483 194.938 L 483 351.3848 C 483 359.4568 476.4408 366 468.351 366 Z" fill="url(#gradient5)"/>
		<path id="315" d="M 468.3491 351.3848 L 208.9617 351.3848 L 208.9617 194.9392 L 468.3491 194.9392 L 468.3491 351.3848 Z" fill="#3d3d89"/>
		<path d="M 295.287 297.2612 C 295.5598 297.5337 296.1057 297.5337 296.1057 298.3506 C 296.1057 298.8953 295.5598 299.1677 295.287 299.4399 L 242.8885 299.4399 C 242.6156 299.1677 242.0698 298.8953 242.0698 298.3506 C 242.0698 297.5337 242.6156 297.5337 242.8885 297.2612 L 295.287 297.2612 Z" fill="#d4e3f8"/>
		<path d="M 295.287 308.1555 C 295.5598 308.4277 296.1057 308.4277 296.1057 309.2449 C 296.1057 309.7896 295.5598 310.062 295.287 310.3342 L 242.8885 310.3342 C 242.6156 310.062 242.0698 309.7896 242.0698 309.2449 C 242.0698 308.4277 242.6156 308.4277 242.8885 308.1555 L 295.287 308.1555 Z" fill="#d4e3f8"/>
		<path d="M 270.043 317.9602 C 270.3158 318.2327 270.8617 318.2327 270.8617 319.0498 C 270.8617 319.5945 270.3158 319.8667 270.043 320.1392 L 243.025 320.1392 C 242.7521 319.8667 242.2063 319.5945 242.2063 319.0498 C 242.2063 318.2327 242.7521 318.2327 243.025 317.9602 L 270.043 317.9602 Z" fill="#d4e3f8"/>
		<g opacity="0.4314">
			<path d="M 317.6654 216.4624 C 317.6654 210.5247 318.6298 209.5625 324.5792 209.5625 L 418.4597 209.5625 C 424.4091 209.5625 425.3734 210.5247 425.3734 216.4624 L 425.3734 310.1523 C 425.3734 316.0903 424.4091 317.0522 418.4597 317.0522 L 324.5792 317.0522 C 318.6298 317.0522 317.6654 316.0903 317.6654 310.1523 L 317.6654 216.4624 Z" fill="#708ff8"/>
		</g>
		<path id="379" d="M 271.4836 270.4038 C 270.1667 272.7478 268.8273 275.0698 267.51 277.4136 C 270.9525 277.0271 277.7273 278.9509 277.8931 273.6101 C 277.5055 270.3599 273.908 270.5808 271.4836 270.4038 ZM 268.4066 254.571 C 259.717 262.2217 250.9385 269.7629 242.2158 277.3584 C 249.0571 277.3696 255.8977 277.3916 262.7389 277.3477 C 268.8165 266.866 274.8381 256.3506 281.0479 245.9463 C 277.3287 249.5508 272.1923 251.0769 268.4066 254.571 ZM 286.7709 244.3433 C 282.4425 251.5083 278.3579 258.8167 274.0743 266.0144 C 276.6646 266.866 279.7528 267.5625 281.026 270.2935 C 283.7047 274.6497 280.4945 281.1072 275.3137 281.3726 C 265.7278 281.8362 256.1194 281.3167 246.522 281.6045 C 247.1863 282.8535 246.5001 285.894 248.6252 285.6179 C 260.4476 285.9387 272.2919 285.6621 284.125 285.7952 C 287.6674 285.8728 291.2322 285.8169 294.7411 285.176 C 293.7228 273.8979 292.505 262.6313 291.3096 251.3752 C 291.2544 248.3015 288.9849 246.1458 286.7709 244.3433 ZM 241.9728 250.3689 C 240.5001 258.6616 238.9839 266.9763 237.9762 275.3462 C 247.042 267.9165 255.7096 260.0105 264.6431 252.4368 C 258.8982 251.6296 254.3702 248.1135 250.3965 244.1665 C 246.522 243.6023 242.4818 246.4219 241.9728 250.3689 ZM 251.5035 233.7727 C 252.2343 237.4438 253.2966 241.3025 256.1858 243.9121 C 261.5325 249.4512 271.2405 249.54 276.7196 244.1223 C 280.2509 241.0483 281.3027 236.3047 281.5685 231.8271 C 277.5055 231.9707 273.0669 232.1921 270.421 228.5322 C 265.0299 232.6895 258.2004 234.0273 251.5035 233.7727 ZM 264.6541 215.0098 C 261.3003 215.8281 257.9127 217.1875 255.5988 219.8416 C 253.053 222.4949 252.2565 226.2097 251.3702 229.6377 C 254.3923 229.5046 257.47 229.5271 260.4365 228.8528 C 264.3993 227.9241 267.5765 225.2595 270.8529 223.0146 C 272.436 224.5293 274.0186 226.0442 275.5905 227.5703 C 277.5833 227.5591 279.5758 227.5371 281.5685 227.5149 C 279.7751 221.2349 274.9266 215.7949 268.163 215.0098 L 264.6541 215.0098 Z" fill="#ffffff"/>
		<g>
			<path d="M 330.765 230.5339 C 330.765 227.9768 332.8422 225.9038 335.4045 225.9038 L 405.8148 225.9038 C 408.3773 225.9038 410.4543 227.9768 410.4543 230.5339 L 410.4543 239.7942 C 410.4543 242.3511 408.3773 244.4241 405.8148 244.4241 L 335.4045 244.4241 C 332.8422 244.4241 330.765 242.3511 330.765 239.7942 L 330.765 230.5339 Z" fill="#708ff8"/>
		</g>
		<g>
			<path d="M 330.765 259.9485 C 330.765 257.3914 332.8422 255.3184 335.4045 255.3184 L 405.8148 255.3184 C 408.3773 255.3184 410.4543 257.3914 410.4543 259.9485 L 410.4543 269.2085 C 410.4543 271.7656 408.3773 273.8386 405.8148 273.8386 L 335.4045 273.8386 C 332.8422 273.8386 330.765 271.7656 330.765 269.2085 L 330.765 259.9485 Z" fill="#708ff8"/>
		</g>
		<g>
			<path d="M 330.765 290.4524 C 330.765 287.8953 332.8422 285.8223 335.4045 285.8223 L 405.8148 285.8223 C 408.3773 285.8223 410.4543 287.8953 410.4543 290.4524 L 410.4543 299.7124 C 410.4543 302.2695 408.3773 304.3425 405.8148 304.3425 L 335.4045 304.3425 C 332.8422 304.3425 330.765 302.2695 330.765 299.7124 L 330.765 290.4524 Z" fill="#000000"/>
		</g>
		<path id="264" d="M 223.7833 109.3811 L 136.6638 109.3811 C 130.4086 109.3811 125.3369 104.3281 125.3369 98.0952 L 125.3369 11.2866 C 125.3369 5.0535 130.4086 0 136.6638 0 L 223.7833 0 C 230.0387 0 235.1096 5.0535 235.1096 11.2866 L 235.1096 98.0952 C 235.1096 104.3281 230.0387 109.3811 223.7833 109.3811 Z" fill="#007bff"/>
		<path id="140" d="M 150.0234 37.9346 C 147.6328 38.8713 146.683 41.5295 146.8354 43.9265 C 146.7704 56.3022 146.8684 68.689 146.7922 81.0647 C 146.8792 83.2766 146.6281 85.9128 148.4185 87.5906 C 150.0996 89.3557 152.7195 89.1157 154.9464 89.2136 C 173.5154 89.1157 192.0951 89.2573 210.6635 89.1487 C 214.0695 89.4971 217.0497 86.49 216.6569 83.0916 C 216.7437 73.6675 216.7 64.2334 216.6787 54.7988 C 216.9841 51.8792 215.0956 48.5896 211.9299 48.4692 C 201.6793 47.9463 191.385 48.7417 181.1569 48.1316 C 177.8601 45.6479 177.8489 40.1895 174.0938 38 C 170.3929 36.9106 166.4417 37.5862 162.6428 37.4229 C 158.4399 37.5969 154.1277 36.9324 150.0234 37.9346 ZM 176.8447 56.0081 C 180.0759 55.616 183.3727 55.5942 186.615 56.0081 C 188.7545 57.3591 187.5643 60.4094 188.0121 62.5122 C 190.1516 62.7732 192.6078 62.196 194.4856 63.4924 C 194.8673 67.0767 195.0752 70.7808 194.2783 74.3325 C 192.2587 75.0081 190.1079 74.8442 188.0233 74.9863 C 187.5319 77.23 188.9838 81.7515 185.4141 81.6423 C 182.281 81.6643 178.875 82.3181 175.9386 80.978 C 175.6331 78.9844 175.5894 76.9795 175.4908 74.9968 C 173.428 74.8877 171.3646 74.866 169.3344 74.4958 C 168.3627 70.9333 168.6681 67.1421 169.0066 63.5144 C 170.8732 62.1743 173.3512 62.7732 175.502 62.5122 C 175.9166 60.3987 174.8143 57.457 176.8447 56.0081 ZM 179.8467 59.9082 C 179.4976 62.0327 180.2507 64.593 178.8313 66.4229 C 176.8666 66.739 174.8688 66.7283 172.9041 66.8479 L 172.871 70.6716 C 175.0105 71.0205 177.6959 70.1924 179.4645 71.7939 C 179.7705 73.7112 179.7374 75.6506 179.8248 77.6008 L 183.6781 77.6008 C 183.8748 75.4543 183.5038 73.1445 184.4642 71.1514 C 186.4945 70.7483 188.5691 70.7588 190.6318 70.6609 L 190.6212 66.8374 C 188.656 66.7283 186.6913 66.75 184.759 66.4448 C 183.1871 64.6797 184.0277 62.0327 183.6781 59.9082 L 179.8467 59.9082 ZM 211.1875 35.9521 C 211.1112 38.6426 211.0894 41.3337 211.0894 44.0244 C 213.0872 44.5471 215.0625 45.0813 217.0715 45.6479 C 217.006 41.4646 214.9974 37.7932 211.1875 35.9521 ZM 193.361 20.6672 C 193.3503 24.7854 193.3391 28.9143 193.394 33.0435 C 197.5201 33.0864 201.6575 33.0759 205.7837 33.0652 L 193.361 20.6672 ZM 156.9879 20.0027 C 155.9944 24.3711 156.682 28.925 156.5295 33.3701 C 162.3912 33.5552 168.319 32.9231 174.1481 33.7078 C 179.2135 34.8079 180.949 40.2224 183.0673 44.2642 L 206.9957 44.2642 L 206.9957 37.1719 C 202.4325 37.0957 197.8586 37.4229 193.3173 37.0198 C 191.2327 36.8564 189.464 35.0042 189.3878 32.9451 C 189.0493 28.4563 189.3223 23.9573 189.2786 19.4688 C 180.0103 19.4475 170.7533 19.4797 161.4962 19.4255 C 159.9788 19.4797 158.385 19.3384 156.9879 20.0027 Z" fill="#ffffff"/>
		<path d="M 242.8535 93.905 C 242.8535 100.6448 237.389 106.1082 230.6483 106.1082 C 223.9076 106.1082 218.4431 100.6448 218.4431 93.905 C 218.4431 87.1655 223.9076 81.7017 230.6483 81.7017 C 237.389 81.7017 242.8535 87.1655 242.8535 93.905 Z" fill="url(#gradient6)"/>
		<path d="M 237.6483 89.2004 C 238.1714 89.6882 235.7743 93.1038 232.2957 96.8279 C 231.7357 97.4272 231.182 97.9976 230.6553 98.5205 L 229.8105 99.3586 L 228.9709 98.6541 C 225.9341 96.104 223.9489 93.9185 224.3175 93.4453 C 224.686 92.9717 227.2916 94.3608 230.5089 96.6787 L 228.8252 96.8125 C 229.3113 96.2507 229.843 95.6594 230.4031 95.0605 C 233.8816 91.3364 237.1262 88.7126 237.6483 89.2004 Z" fill="#e0e0e0"/>
		<g>
			<g>
				<path d="M 25.953 286.7039 L 27.7964 320.6074 C 27.8624 321.8159 28.856 322.7634 30.0663 322.7722 L 91.0854 323.22 C 92.3501 323.2288 93.3824 322.2119 93.3922 320.9478 L 93.5854 294.5569 C 93.5942 293.2866 92.5686 292.2524 91.2981 292.2505 L 53.7695 292.2175 C 53.1636 292.2175 52.5818 291.9756 52.1533 291.5474 L 45.6777 285.0762 C 45.2523 284.6514 44.6775 284.4106 44.0762 284.4063 L 28.2559 284.2903 C 26.9358 284.2813 25.8811 285.386 25.953 286.7039 Z" fill="#ebebeb"/>
			</g>
			<g>
				<path d="M 93.3397 328.095 L 26.6677 327.6067 L 26.9602 287.7739 L 93.6311 288.2632 L 93.3397 328.095 Z" fill="#f5f5f5"/>
			</g>
			<g>
				<path d="M 21.6299 291.3093 L 26.4161 332.8843 C 26.5006 333.6233 27.1243 334.1829 27.8684 334.1887 L 92.8435 334.6643 C 93.6117 334.6702 94.2557 334.0835 94.3208 333.3186 L 97.8971 291.8044 C 97.9708 290.949 97.2996 290.2131 96.441 290.2063 L 23.1031 289.6689 C 22.2192 289.6624 21.5287 290.4316 21.6299 291.3093 Z" fill="#ebebeb"/>
			</g>
		</g>
		<path d="M 4.295 304.3203 L 6.122 337.9263 C 6.1871 339.124 7.172 340.0637 8.3717 340.0725 L 68.8546 340.5154 C 70.1077 340.5242 71.1313 339.5161 71.1401 338.2637 L 71.3313 312.1047 C 71.3412 310.8459 70.3232 309.8208 69.0645 309.8186 L 31.8662 309.7856 C 31.2657 309.7856 30.6888 309.5469 30.2646 309.1216 L 23.8462 302.7073 C 23.4246 302.2866 22.8545 302.0476 22.2581 302.0439 L 6.5775 301.9285 C 5.2692 301.9189 4.2232 303.0149 4.295 304.3203 Z" fill="url(#gradient7)"/>
		<path d="M 71.0885 345.3474 L 5.0031 344.864 L 5.2926 305.3816 L 71.3781 305.8665 L 71.0885 345.3474 Z" fill="url(#gradient8)"/>
		<path d="M 0.0097 308.8862 L 4.7534 350.0955 C 4.838 350.8274 5.4557 351.3818 6.1929 351.3877 L 70.597 351.8599 C 71.3577 351.8645 71.9957 351.2837 72.0608 350.5254 L 75.605 309.3767 C 75.6779 308.5291 75.0135 307.7986 74.1619 307.7927 L 1.4705 307.2598 C 0.5934 307.2539 -0.0902 308.0156 0.0097 308.8862 Z" fill="url(#gradient9)"/>
	</g>
</svg>